<?xml version="1.0" encoding="UTF-8"?>
<svg version="1.1" xmlns="http://www.w3.org/2000/svg" width="3000" height="2400">
<path d="M0 0 C4.27503137 0.7387448 5.96810385 3.55797932 8.5703125 6.8515625 C9.07240234 7.45484375 9.57449219 8.058125 10.09179688 8.6796875 C13.7578125 13.16868622 13.7578125 13.16868622 13.7578125 15.4765625 C14.4178125 15.4765625 15.0778125 15.4765625 15.7578125 15.4765625 C17.046875 16.9375 17.046875 16.9375 18.3828125 18.8515625 C18.82882812 19.47804688 19.27484375 20.10453125 19.734375 20.75 C20.7578125 22.4765625 20.7578125 22.4765625 20.7578125 24.4765625 C21.4178125 24.4765625 22.0778125 24.4765625 22.7578125 24.4765625 C24.31640625 26.20703125 24.31640625 26.20703125 26.1953125 28.6640625 C29.47765373 32.87739506 32.85009073 36.98135288 36.3203125 41.0390625 C40.02393932 45.38646903 43.62305308 49.78607858 47.09765625 54.3203125 C48.87248247 56.62549856 50.68547691 58.8962671 52.5078125 61.1640625 C57.16423402 66.96888856 61.7556312 72.82391714 66.34765625 78.6796875 C67.70156018 80.40488365 69.05738749 82.12854498 70.4140625 83.8515625 C76.15443923 91.14382185 81.86264476 98.46047557 87.5546875 105.79052734 C91.20786891 110.49249298 94.88128124 115.17769749 98.5703125 119.8515625 C101.90484124 124.07726725 105.17136218 128.34330291 108.3828125 132.6640625 C111.18958466 136.4345759 114.0681202 140.10991792 117.0703125 143.7265625 C121.26214602 148.79169467 125.1906049 154.02228225 129.10913086 159.29858398 C132.52240563 163.87665959 136.03501417 168.35502561 139.6328125 172.7890625 C144.85063807 179.23233217 149.78310884 185.86199504 154.67602539 192.55419922 C158.08704496 197.21752115 161.53253585 201.84612331 165.0703125 206.4140625 C173.88065206 217.7946794 182.3952592 229.39154431 190.92285156 240.984375 C192.71696257 243.42108138 194.51415428 245.85548024 196.3125 248.2890625 C203.7023864 258.29275818 211.03303759 268.33667633 218.29101562 278.43652344 C219.63690366 280.308401 220.98604999 282.17788098 222.3359375 284.046875 C227.65968635 291.43801654 232.83526215 298.9233126 237.94140625 306.46655273 C240.77732818 310.64190931 243.67745002 314.75500472 246.6640625 318.82421875 C250.82424437 324.51529591 254.74644185 330.34624012 258.6328125 336.2265625 C260.03757919 338.34647427 261.44252669 340.46626623 262.84765625 342.5859375 C263.51909668 343.59978516 264.19053711 344.61363281 264.88232422 345.65820312 C266.47413381 348.05026899 268.07950994 350.43147939 269.69921875 352.8046875 C293.38795998 387.55746963 307.95197171 427.94699949 313.2890625 469.58984375 C313.37792725 470.27828369 313.46679199 470.96672363 313.55834961 471.67602539 C313.80860227 473.63489967 314.05097958 475.59477524 314.29296875 477.5546875 C314.44616814 480.36066068 314.44616814 480.36066068 315.7578125 481.4765625 C315.861327 482.93683395 315.89632078 484.40204661 315.90307617 485.8659668 C315.91264595 487.26959724 315.91264595 487.26959724 315.92240906 488.70158386 C315.92407829 490.23568657 315.92407829 490.23568657 315.92578125 491.80078125 C315.92910965 492.85376907 315.93243805 493.9067569 315.93586731 494.99165344 C315.9409466 497.23377037 315.94327533 499.4758949 315.94311523 501.71801758 C315.9452745 505.10446254 315.96334295 508.49056709 315.98242188 511.87695312 C316.01166236 522.95971319 315.77170198 533.55575969 313.7578125 544.4765625 C313.48914791 546.31912871 313.2282917 548.16285632 312.9765625 550.0078125 C312.73737527 551.66411975 312.49780199 553.3203713 312.2578125 554.9765625 C312.14050781 555.81703125 312.02320313 556.6575 311.90234375 557.5234375 C311.24008184 562.05245446 310.31111756 566.15249707 308.7578125 570.4765625 C308.18246082 572.66071747 307.62105026 574.84857159 307.0703125 577.0390625 C299.06084074 607.60385457 286.36906534 637.80176381 267.7578125 663.4765625 C267.08105469 664.42402344 266.40429688 665.37148437 265.70703125 666.34765625 C264.36362787 668.2122293 263.01006186 670.0695393 261.64453125 671.91796875 C260.41991274 673.5786833 259.21296597 675.25263058 258.02734375 676.94140625 C257.50527344 677.67488281 256.98320313 678.40835938 256.4453125 679.1640625 C255.99542969 679.80730469 255.54554688 680.45054687 255.08203125 681.11328125 C254.64503906 681.56316406 254.20804688 682.01304687 253.7578125 682.4765625 C252.7678125 682.4765625 251.7778125 682.4765625 250.7578125 682.4765625 C250.56832031 683.47429688 250.37882812 684.47203125 250.18359375 685.5 C248.75441052 690.4616457 245.50877485 693.5075334 241.9453125 697.1015625 C241.27532227 697.79451416 240.60533203 698.48746582 239.91503906 699.20141602 C237.87414031 701.30473715 235.81658075 703.39075132 233.7578125 705.4765625 C232.59156515 706.68013482 231.42614695 707.88451136 230.26171875 709.08984375 C223.79331531 715.73192781 217.03873052 721.72280897 209.7578125 727.4765625 C208.95730469 728.15589844 208.15679688 728.83523438 207.33203125 729.53515625 C178.14182464 754.27646668 139.40369715 777.90786752 101.56347656 785.81274414 C98.74211805 786.4802758 96.09832268 787.35834626 93.3671875 788.328125 C86.88559336 790.51511119 80.34329377 792.14103086 73.66381836 793.60424805 C71.74583354 794.02790313 69.83276487 794.47362483 67.91992188 794.91992188 C45.24393218 800.04432553 22.17540735 801.03474499 -0.9921875 800.9140625 C-2.25867126 800.91068878 -3.52515503 800.90731506 -4.83001709 800.90383911 C-23.95644701 800.8302099 -42.42476843 800.12766414 -61.2421875 796.4765625 C-63.14218506 796.13044922 -63.14218506 796.13044922 -65.08056641 795.77734375 C-94.53435412 790.37962705 -122.4282931 780.83421946 -149.2421875 767.4765625 C-150.50675781 766.85249512 -150.50675781 766.85249512 -151.796875 766.21582031 C-169.39831617 757.46368415 -185.80650969 747.04058059 -201.31494141 734.97314453 C-203.31653425 733.41882934 -205.33119448 731.88261778 -207.34765625 730.34765625 C-208.64646939 729.34978567 -209.94467158 728.35111926 -211.2421875 727.3515625 C-211.84844971 726.88999756 -212.45471191 726.42843262 -213.0793457 725.95288086 C-214.50497928 724.84121738 -215.87955332 723.66460917 -217.2421875 722.4765625 C-217.2421875 721.8165625 -217.2421875 721.1565625 -217.2421875 720.4765625 C-217.8403125 720.2290625 -218.4384375 719.9815625 -219.0546875 719.7265625 C-222.44890321 717.78701067 -223.87647193 715.5005661 -225.1796875 711.8515625 C-225.9749465 709.37356331 -225.9749465 709.37356331 -227.9375 708.69921875 C-231.87367863 706.61104263 -234.68615896 703.10773714 -237.73242188 699.90820312 C-240.01139044 697.55973615 -241.94918385 695.64680927 -244.796875 693.9921875 C-248.0815666 691.95630836 -250.1356485 689.20487201 -252.4296875 686.1640625 C-252.9030957 685.54813232 -253.37650391 684.93220215 -253.86425781 684.29760742 C-289.40185705 637.74760842 -315.0264528 581.60344805 -315.48046875 522.14453125 C-315.49035324 521.08282715 -315.50023773 520.02112305 -315.51042175 518.92724609 C-315.8438498 473.81634419 -315.8438498 473.81634419 -311.2421875 452.4765625 C-310.97905762 451.24357422 -310.71592773 450.01058594 -310.44482422 448.74023438 C-304.3098801 420.97848384 -294.05137055 395.35222711 -280.2421875 370.4765625 C-279.54268403 369.19025896 -278.84348467 367.90379001 -278.14453125 366.6171875 C-274.19460084 359.40438297 -270.09312257 352.60280009 -265.125 346.02734375 C-263.28277903 343.53155476 -261.62766511 340.98649866 -259.9921875 338.3515625 C-256.5522545 332.85700888 -252.8336699 327.59059385 -249.07617188 322.31152344 C-245.14880327 316.78546762 -241.30569363 311.20668966 -237.4921875 305.6015625 C-233.5220167 299.77354422 -229.50153348 294.00090076 -225.31640625 288.32421875 C-223.18473989 285.39769375 -221.1023539 282.44050647 -219.0246582 279.47558594 C-213.48336959 271.56929618 -207.78730007 263.80165317 -201.96875 256.09765625 C-199.0920133 252.28731104 -196.28348215 248.43014598 -193.484375 244.5625 C-180.93683711 227.29324054 -168.12207667 210.2272699 -155.16894531 193.26098633 C-151.12297903 187.95802551 -147.10556995 182.63542148 -143.1171875 177.2890625 C-138.33659536 170.88710623 -133.45114447 164.57160068 -128.53613281 158.27246094 C-124.45798862 153.04459118 -120.39901401 147.80275421 -116.3671875 142.5390625 C-115.82779541 141.83499268 -115.28840332 141.13092285 -114.73266602 140.40551758 C-111.06249453 135.59626855 -107.49513947 130.72850304 -104.0234375 125.7734375 C-102.2421875 123.4765625 -102.2421875 123.4765625 -99.87109375 121.11328125 C-96.8665106 118.09976918 -94.28505813 114.89605184 -91.6796875 111.5390625 C-91.21111328 110.94416016 -90.74253906 110.34925781 -90.25976562 109.73632812 C-88.04711872 106.90475901 -85.95268215 104.07061572 -84.02734375 101.03515625 C-83.43824219 100.19082031 -82.84914063 99.34648438 -82.2421875 98.4765625 C-81.5821875 98.4765625 -80.9221875 98.4765625 -80.2421875 98.4765625 C-79.96503906 97.89003906 -79.68789062 97.30351563 -79.40234375 96.69921875 C-75.92034107 90.02831127 -70.49311667 84.31133932 -65.734375 78.53515625 C-63.00986384 75.19143801 -60.33853389 71.8100239 -57.6796875 68.4140625 C-51.71975448 60.80412906 -45.70504706 53.24650012 -39.5546875 45.7890625 C-37.00600364 42.69548761 -34.57075136 39.59484977 -32.3046875 36.2890625 C-31.6240625 35.3609375 -30.9434375 34.4328125 -30.2421875 33.4765625 C-29.5821875 33.4765625 -28.9221875 33.4765625 -28.2421875 33.4765625 C-28.0565625 32.8165625 -27.8709375 32.1565625 -27.6796875 31.4765625 C-25.92019862 27.80458571 -23.54235105 25.22705218 -20.80078125 22.24609375 C-19.17162034 20.54841744 -19.17162034 20.54841744 -18.2421875 18.4765625 C-17.5821875 18.4765625 -16.9221875 18.4765625 -16.2421875 18.4765625 C-15.901875 17.703125 -15.901875 17.703125 -15.5546875 16.9140625 C-13.76001132 13.58109245 -11.74253735 10.32952579 -9.2421875 7.4765625 C-8.5821875 7.4765625 -7.9221875 7.4765625 -7.2421875 7.4765625 C-6.84 6.579375 -6.84 6.579375 -6.4296875 5.6640625 C-4.72452815 2.52297948 -3.59956746 0.76506486 0 0 Z M-0.2421875 72.4765625 C-5.26910565 77.64371657 -9.87869059 83.15374785 -14.24609375 88.8828125 C-16.78333014 92.17973024 -19.38714184 95.4206262 -21.9921875 98.6640625 C-26.39581482 104.15400487 -30.76280973 109.67070984 -35.10107422 115.21240234 C-37.9170722 118.80453401 -40.75966212 122.37366033 -43.62109375 125.9296875 C-48.97954522 132.58927732 -54.21324156 139.33147261 -59.3840332 146.13769531 C-62.95642758 150.82836271 -66.60041273 155.45203857 -70.3046875 160.0390625 C-74.86505329 165.69215578 -79.26126186 171.44861145 -83.59521484 177.27661133 C-87.47257931 182.48024362 -91.43473063 187.61278183 -95.4296875 192.7265625 C-100.78398311 199.58431307 -106.04779857 206.49660238 -111.2421875 213.4765625 C-113.1151632 215.97808185 -114.99130256 218.47722439 -116.8671875 220.9765625 C-117.88677165 222.33589782 -118.90630129 223.69527404 -119.92578125 225.0546875 C-127.02734375 234.5234375 -127.02734375 234.5234375 -128.9753418 237.12060547 C-130.27519219 238.85384758 -131.57483512 240.58724531 -132.87426758 242.32080078 C-135.52603274 245.85808504 -138.17793727 249.39516031 -140.84375 252.921875 C-145.03919186 258.48120609 -149.13622364 264.10128814 -153.16577148 269.78149414 C-156.75597991 274.82909362 -160.43102515 279.81126244 -164.1171875 284.7890625 C-170.15896379 292.95605795 -176.04441421 301.22260453 -181.87792969 309.5390625 C-183.94039958 312.4681536 -186.02887181 315.37837398 -188.1171875 318.2890625 C-206.34749836 343.6433473 -206.34749836 343.6433473 -223.5078125 369.72265625 C-225.13352214 372.30401953 -226.79893353 374.85660709 -228.47192383 377.4074707 C-247.11716061 406.0053131 -258.69789647 436.39688993 -264.78076172 469.96313477 C-265.09398824 471.66930782 -265.42832952 473.37171266 -265.78149414 475.07006836 C-266.44150696 478.51773469 -266.61842027 481.97811127 -266.8046875 485.4765625 C-266.8464209 486.25837891 -266.8881543 487.04019531 -266.93115234 487.84570312 C-267.39260997 497.39128368 -267.40047912 506.92319755 -267.2421875 516.4765625 C-267.23131104 517.5888623 -267.23131104 517.5888623 -267.22021484 518.72363281 C-266.54996579 568.41294378 -244.42757749 617.55989981 -213.2421875 655.4765625 C-212.76523438 656.05792969 -212.28828125 656.63929688 -211.796875 657.23828125 C-202.21604807 668.84286573 -191.88946327 679.91058686 -180.2421875 689.4765625 C-179.71399414 689.91323242 -179.18580078 690.34990234 -178.64160156 690.79980469 C-170.48012822 697.52492966 -162.22172591 703.86292477 -153.2421875 709.4765625 C-152.68096191 709.82783203 -152.11973633 710.17910156 -151.54150391 710.54101562 C-116.04742856 732.62621806 -72.98270558 750.75838209 -30.640625 752.203125 C-27.76520349 752.43448075 -25.25274836 752.90453771 -22.44921875 753.51953125 C-15.25885748 754.8774935 -8.17299035 754.53836231 -0.89819336 754.25512695 C1.45108503 754.16383819 3.80043934 754.08924834 6.15039062 754.01757812 C7.66930314 753.96710883 9.18818507 753.91570875 10.70703125 753.86328125 C11.39681564 753.84029465 12.08660004 753.81730804 12.79728699 753.79362488 C17.50596527 753.60658202 22.09248217 753.10095196 26.7578125 752.4765625 C27.95277344 752.35796875 29.14773438 752.239375 30.37890625 752.1171875 C61.04120572 748.97877404 90.8900816 740.64096364 118.7578125 727.4765625 C119.83675781 726.96826904 119.83675781 726.96826904 120.9375 726.44970703 C125.60084228 724.22963539 130.19132965 721.88875776 134.7578125 719.4765625 C135.39992676 719.14221191 136.04204102 718.80786133 136.70361328 718.46337891 C147.37031095 712.87151577 157.04486227 706.23328181 166.68066406 699.02490234 C168.62995623 697.57186862 170.59265243 696.13982877 172.5625 694.71484375 C173.66960194 693.90670339 174.77639656 693.0981418 175.8828125 692.2890625 C176.83414062 691.59425781 177.78546875 690.89945313 178.765625 690.18359375 C179.42304687 689.62027344 180.08046875 689.05695312 180.7578125 688.4765625 C180.7578125 687.8165625 180.7578125 687.1565625 180.7578125 686.4765625 C181.5621875 686.14591797 181.5621875 686.14591797 182.3828125 685.80859375 C185.57207506 684.01987906 188.10497013 681.64749029 190.7578125 679.1640625 C191.32741699 678.63280762 191.89702148 678.10155273 192.48388672 677.55419922 C215.39937252 655.91848343 233.29216882 629.88928029 246.7578125 601.4765625 C247.05929199 600.85233398 247.36077148 600.22810547 247.67138672 599.58496094 C258.36742916 577.28257456 264.19136959 552.91212559 266.36328125 528.35546875 C266.7578125 524.4765625 266.7578125 524.4765625 267.27197266 522.62426758 C268.4428768 517.44816519 267.942667 511.88198017 267.9453125 506.6015625 C267.95755859 505.35375 267.96980469 504.1059375 267.98242188 502.8203125 C267.99581616 494.19439107 267.15637715 485.97973035 265.7578125 477.4765625 C265.52815825 475.85869053 265.30233959 474.24026484 265.08203125 472.62109375 C259.02435731 430.49791211 240.14942671 394.09929651 216.17382812 359.53173828 C214.35400064 356.89047832 212.58379451 354.21819863 210.8203125 351.5390625 C204.97662558 342.73047337 198.84110721 334.12035434 192.7578125 325.4765625 C191.71999963 323.99873475 190.68223648 322.52087208 189.64453125 321.04296875 C180.52465795 308.07171664 171.22838465 295.2290632 161.890625 282.4140625 C160.21400867 280.10487664 158.54271209 277.79217049 156.875 275.4765625 C144.92237241 258.88170991 132.78553399 242.44603061 120.36328125 226.19921875 C117.64182175 222.63920649 114.93908355 219.06691211 112.2578125 215.4765625 C108.14395363 209.97299315 103.98439033 204.50471373 99.8203125 199.0390625 C99.11922363 198.11883301 98.41813477 197.19860352 97.69580078 196.25048828 C94.02539388 191.43722081 90.33967382 186.63678348 86.6328125 181.8515625 C83.72780054 178.09884228 80.89625461 174.30627632 78.109375 170.46484375 C77.47273926 169.58973145 76.83610352 168.71461914 76.18017578 167.81298828 C74.91489479 166.06949085 73.65528769 164.32185931 72.40185547 162.56982422 C71.54164795 161.38477295 71.54164795 161.38477295 70.6640625 160.17578125 C70.15166016 159.46252686 69.63925781 158.74927246 69.11132812 158.0144043 C68.66466797 157.5069165 68.21800781 156.99942871 67.7578125 156.4765625 C67.0978125 156.4765625 66.4378125 156.4765625 65.7578125 156.4765625 C65.520625 155.765 65.2834375 155.0534375 65.0390625 154.3203125 C63.5408805 150.99507929 61.64812803 148.72996393 59.2578125 145.9765625 C55.69451431 141.81302785 52.26282089 137.59199089 48.9453125 133.2265625 C43.53172665 126.10701473 37.87350703 119.19345329 32.21630859 112.26708984 C29.03412002 108.36046597 25.89717474 104.41760737 22.7578125 100.4765625 C18.56584737 95.21556209 14.35166999 89.97772754 10.0703125 84.7890625 C7.52047444 81.68874127 5.05891942 78.57825279 2.7578125 75.2890625 C2.0978125 74.3609375 1.4378125 73.4328125 0.7578125 72.4765625 C0.4278125 72.4765625 0.0978125 72.4765625 -0.2421875 72.4765625 Z " fill="#EEFEFE" transform="translate(1500.2421875,709.5234375)"/>
<path d="M0 0 C7.42727461 -0.12938427 14.85424882 -0.16436865 22.28250504 -0.186306 C23.45527308 -0.19038153 24.62804111 -0.19445705 25.83634758 -0.19865608 C32.02013971 -0.21935803 38.20391057 -0.23373878 44.38772964 -0.24319077 C50.77116988 -0.2543458 57.1542702 -0.2888938 63.53758907 -0.32836246 C68.45913232 -0.35443036 73.38059219 -0.36287282 78.30219841 -0.36647224 C80.65738463 -0.37134758 83.01256689 -0.38298833 85.36768532 -0.40151024 C88.64646119 -0.42573709 91.92432227 -0.42496908 95.20315933 -0.41799545 C96.66105881 -0.43721054 96.66105881 -0.43721054 98.1484108 -0.45681381 C104.71905887 -0.4056958 104.71905887 -0.4056958 107.86267471 1.93666458 C108.34797653 2.6347171 108.83327835 3.33276962 109.33328629 4.05197525 C109.88105728 4.81590591 110.42882828 5.57983658 110.99319839 6.36691666 C111.52695084 7.20400162 112.06070328 8.04108658 112.61063004 8.90353775 C113.20682144 9.83810806 113.80301285 10.77267838 114.41727066 11.735569 C115.02893082 12.70623306 115.64059097 13.67689713 116.27078629 14.67697525 C116.87857925 15.62443619 117.48637222 16.57189713 118.11258316 17.548069 C121.45889902 22.8256459 124.44089883 28.1359367 127.16849136 33.75558853 C128.93310179 37.2345082 131.04031151 40.43939503 133.20828629 43.67697525 C137.76136786 50.59863467 142.20184006 57.58291035 146.58328629 64.61447525 C147.21162369 65.62244156 147.83996109 66.63040787 148.48733902 67.66891861 C149.77957904 69.74268811 151.07148637 71.81666496 152.36307144 73.89084244 C155.011633 78.14035607 157.66830697 82.38477287 160.32474136 86.62936783 C171.72787709 104.85349856 171.72787709 104.85349856 175.67313004 111.35666275 C176.8187557 113.21661971 178.00104914 115.05431368 179.21219254 116.87228775 C179.78840347 117.75658463 180.36461441 118.6408815 180.95828629 119.55197525 C181.46617691 120.30478775 181.97406754 121.05760025 182.49734879 121.83322525 C183.33328629 124.05197525 183.33328629 124.05197525 182.71609879 126.3996315 C182.25977066 127.27490494 181.80344254 128.15017838 181.33328629 129.05197525 C180.78156754 130.11287369 180.22984879 131.17377213 179.66141129 132.266819 C178.97399105 133.51064168 178.28087958 134.75132944 177.58328629 135.98947525 C177.19697037 136.6762233 176.81065445 137.36297134 176.41263199 138.07052994 C172.42142292 145.06073953 168.08317575 151.82037866 163.72806168 158.58761978 C158.9924329 165.96100084 154.44310998 173.43187008 149.97659683 180.97092056 C149.51035904 181.75692642 149.04412125 182.54293228 148.56375504 183.3527565 C147.95116837 184.39170059 147.95116837 184.39170059 147.32620621 185.45163345 C146.33328629 187.05197525 146.33328629 187.05197525 145.33328629 188.05197525 C146.24481964 188.03785599 147.156353 188.02373672 148.09550858 188.00918961 C156.70260583 187.88655609 165.30780173 187.82179427 173.91580677 187.82138062 C178.34121899 187.8191439 182.76418071 187.79485144 187.18899918 187.71945572 C191.46287483 187.64745492 195.73332034 187.634304 200.00767708 187.66126633 C201.63481384 187.66132196 203.26209477 187.64047269 204.8886776 187.59801865 C209.94874512 187.47399297 214.47559135 187.5319384 219.33328629 189.05197525 C222.80011813 192.65316224 224.4619328 196.47224347 226.33328629 201.05197525 C227.41652236 202.85826113 228.53128338 204.64647474 229.69266129 206.40353775 C230.2451857 207.2648732 230.79771011 208.12620865 231.36697769 209.01364517 C231.93335953 209.8925441 232.49974136 210.77144302 233.08328629 211.67697525 C237.44683264 218.48900104 241.76187017 225.3231598 245.95828629 232.23947525 C250.13093658 239.11481293 254.39369354 245.92747708 258.70169449 252.7187233 C263.1210245 259.69379321 267.47060537 266.71081813 271.80252457 273.74045181 C275.17788525 279.2116112 278.60743797 284.63603064 282.16141129 289.9933815 C284.25046195 293.66314718 284.25046195 293.66314718 284.33328629 296.05197525 C283.0697084 298.43939416 281.79672798 300.53210271 280.27078629 302.73947525 C279.85756119 303.35943375 279.44433609 303.97939224 279.01858902 304.61813736 C277.80249212 306.43814472 276.5708664 308.24652795 275.33328629 310.05197525 C274.18526215 311.73798559 273.039023 313.42521503 271.89578629 315.11447525 C271.44332535 315.76545181 270.99086441 316.41642838 270.52469254 317.0871315 C269.25362059 319.05417688 269.25362059 319.05417688 268.42313004 321.40353775 C267.07701522 324.67474149 265.27793932 327.40929715 263.33328629 330.36447525 C262.51468415 331.61910086 261.69700942 332.87433196 260.88016129 334.13010025 C260.45799332 334.77785416 260.03582535 335.42560806 259.60086441 336.09299088 C257.56094497 339.24559364 255.56996914 342.42814159 253.58328629 345.61447525 C253.17239761 346.27278336 252.76150894 346.93109146 252.3381691 347.6093483 C249.98338166 351.38782556 247.63969213 355.1730334 245.30203629 358.9621315 C239.06765335 369.06491127 232.7723983 379.12387863 226.38016129 389.12765884 C222.31778566 395.48830285 218.30127147 401.87548063 214.35208511 408.3071022 C212.81708141 410.78749014 211.40393419 412.98132734 209.33328629 415.05197525 C207.1573658 415.32879734 207.1573658 415.32879734 204.40112686 415.36650467 C203.35816956 415.38515076 202.31521225 415.40379684 201.24065018 415.42300797 C200.09156677 415.43309891 198.94248337 415.44318985 197.75857925 415.45358658 C196.55194122 415.47154785 195.34530319 415.48950912 194.10210037 415.50801468 C190.09325108 415.5629154 186.08454877 415.60120551 182.07547379 415.6340065 C181.05179758 415.64292565 181.05179758 415.64292565 180.00744104 415.65202498 C173.56822071 415.70796762 167.12899209 415.75663711 160.68959236 415.78617191 C152.45944998 415.82428138 144.23154817 415.89931899 136.00227821 416.02601033 C130.2127835 416.11209691 124.42388896 416.15575623 118.63377297 416.16828936 C115.17729145 416.17688295 111.72327107 416.20378724 108.26748657 416.2761364 C104.40578757 416.35587216 100.54690731 416.3477852 96.6843605 416.33249283 C95.54742249 416.36889877 94.41048447 416.40530472 93.23909378 416.44281387 C88.35781303 416.35986097 85.49650726 416.18314779 81.90744781 412.69297218 C79.84377618 409.89208132 78.062306 407.06873299 76.33328629 404.05197525 C75.25628572 402.38120936 74.17391299 400.71387846 73.08328629 399.05197525 C71.83048497 397.0537288 70.58090393 395.05346225 69.33328629 393.05197525 C67.46211911 390.07038956 65.58585613 387.09203245 63.70828629 384.11447525 C63.20555191 383.31678726 62.70281754 382.51909927 62.18484879 381.69723892 C56.32596546 372.4228097 50.33506554 363.23434687 44.33328629 354.05197525 C40.27616796 359.68238487 36.42929464 365.40680479 32.77078629 371.30197525 C32.36070328 371.96261978 31.95062027 372.62326431 31.5281105 373.30392838 C31.0964357 373.99937759 30.66476089 374.69482681 30.22000504 375.41135025 C26.86845363 380.80889998 23.48170283 386.18383306 20.08328629 391.55197525 C19.50506119 392.47139908 18.92683609 393.39082291 18.33108902 394.33810806 C14.88821732 399.76803117 11.26239244 404.96461011 7.33328629 410.05197525 C6.97786255 410.73357712 6.62243881 411.41517899 6.25624466 412.11743546 C3.33354082 415.05774189 0.12700378 414.71352246 -3.80221176 414.77609634 C-4.63810428 414.80410513 -5.47399679 414.83211391 -6.33521938 414.86097145 C-9.11227143 414.94654907 -11.88882063 415.00119502 -14.66671371 415.05197525 C-16.58677113 415.09702108 -18.50682521 415.14220969 -20.42687607 415.18753433 C-32.74211153 415.4496285 -45.06078992 415.5293179 -57.3783884 415.60041618 C-63.57611469 415.63642749 -69.77257027 415.69052008 -75.96969223 415.78586197 C-82.01527827 415.87850665 -88.05973406 415.92729429 -94.10598946 415.94480896 C-96.39824483 415.95889238 -98.69046056 415.98850722 -100.98230553 416.03411102 C-104.17510987 416.09467977 -107.36334723 416.09885959 -110.55660629 416.08957291 C-111.49636307 416.12035934 -112.43611984 416.15114578 -113.4043541 416.18286514 C-116.1076959 416.14006365 -118.13284402 416.00435451 -120.66671371 415.05197525 C-123.2739621 412.33732116 -124.95749099 409.38441341 -126.66671371 406.05197525 C-127.28675278 405.0671315 -127.90679184 404.08228775 -128.54561996 403.06760025 C-129.1012059 402.154944 -129.65679184 401.24228775 -130.22921371 400.30197525 C-130.90597153 399.19595963 -131.58272934 398.089944 -132.27999496 396.95041275 C-132.65462875 396.3377858 -133.02926254 395.72515884 -133.41524887 395.09396744 C-135.9049147 391.03162546 -138.41061886 386.9791957 -140.91671371 382.92697525 C-141.47213852 382.02849869 -142.02756332 381.13002213 -142.59981918 380.204319 C-146.31140747 374.21106041 -150.07158791 368.25056814 -153.85421371 362.30197525 C-158.0516957 355.69391588 -162.08670204 349.01020167 -166.02560043 342.24533463 C-168.76734801 337.54769766 -171.58657891 332.90814076 -174.47921371 328.30197525 C-174.87761459 327.66501724 -175.27601547 327.02805923 -175.68648911 326.37179947 C-178.15033524 322.44065402 -180.64375616 318.52974792 -183.15108871 314.626194 C-184.34402697 312.74743372 -185.53673743 310.86852878 -186.72921371 308.98947525 C-187.58833359 307.66834732 -187.58833359 307.66834732 -188.46480942 306.32052994 C-191.43978885 301.60778045 -193.73605534 297.8003961 -193.66671371 292.05197525 C-192.65499496 289.19260025 -192.65499496 289.19260025 -190.97921371 286.30197525 C-190.00468246 284.61201431 -190.00468246 284.61201431 -189.01046371 282.88791275 C-184.86068147 276.04005161 -180.5760854 269.27818084 -176.25606918 262.53683853 C-173.6676972 258.49007201 -171.10514478 254.42706866 -168.54171371 250.36447525 C-168.0419603 249.57347427 -167.54220688 248.7824733 -167.02730942 247.96750259 C-163.89297532 243.00442265 -160.77395743 238.03205254 -157.66671371 233.05197525 C-154.03361996 227.23142433 -150.3883085 221.41872028 -146.72921371 215.61447525 C-146.28770981 214.91258072 -145.8462059 214.21068619 -145.39132309 213.48752213 C-144.4298202 211.96411967 -143.437048 210.46020437 -142.42135239 208.97238541 C-140.95827186 206.5372429 -139.94548526 204.33583025 -138.89059067 201.72140884 C-136.62030287 196.66784698 -134.2880077 192.28729771 -129.66671371 189.05197525 C-120.75531789 186.27584091 -111.02680655 187.11179 -101.79714584 187.47940445 C-98.36967643 187.59968606 -94.94164276 187.63026612 -91.51241684 187.6652565 C-87.63773417 187.70771504 -83.76542304 187.76504727 -79.89207077 187.88168716 C-72.40211081 188.10626066 -65.11884252 187.84966281 -57.66671371 187.05197525 C-68.33284818 169.69834716 -68.33284818 169.69834716 -79.03853989 152.36911392 C-80.11480338 150.6308572 -81.18921858 148.89145457 -82.26168442 147.1508522 C-84.56283025 143.4198469 -86.87877128 139.70526042 -89.28390121 136.0402565 C-89.67061996 135.4418898 -90.05733871 134.8435231 -90.45577621 134.22702408 C-91.45031614 132.69295519 -92.46011005 131.16880344 -93.47140121 129.64572525 C-94.66671371 127.05197525 -94.66671371 127.05197525 -94.66280746 124.71603775 C-93.20221742 120.80967536 -91.07768387 117.44349759 -88.85421371 113.92697525 C-88.36573959 113.14145279 -87.87726547 112.35593033 -87.37398911 111.54660416 C-85.81346164 109.04291166 -84.24144595 106.546754 -82.66671371 104.05197525 C-82.16075668 103.24760025 -81.65479965 102.44322525 -81.13351059 101.61447525 C-78.61524416 97.61124398 -76.08950915 93.61283142 -73.55733871 89.6183815 C-70.97478181 85.54294338 -68.40897572 81.45738382 -65.85421371 77.36447525 C-65.45863266 76.7307399 -65.06305161 76.09700455 -64.65548325 75.44406509 C-63.8033384 74.07856389 -62.95129216 72.71300116 -62.0993309 71.34738541 C-59.22837863 66.7474036 -56.35336676 62.14995754 -53.47921371 57.55197525 C-52.1901365 55.48948445 -50.90107417 53.42698434 -49.61202621 51.36447525 C-46.98181788 47.15614192 -44.35160955 42.94780858 -41.72140121 38.73947525 C-41.07872299 37.71112564 -40.43604477 36.68277603 -39.77389145 35.62326431 C-38.50540859 33.59382079 -37.23669534 31.56452125 -35.96773911 29.53537369 C-33.17576915 25.0703006 -30.38630088 20.60376842 -27.60811996 16.13010025 C-27.14832748 15.39082291 -26.688535 14.65154556 -26.21480942 13.88986588 C-25.38238533 12.55097349 -24.55136579 11.21120624 -23.72213364 9.87033463 C-22.71737507 8.2555997 -21.69306001 6.65307548 -20.66671371 5.05197525 C-20.05337929 3.99045494 -20.05337929 3.99045494 -19.42765427 2.90748978 C-16.90812325 0.25264354 -15.16249706 0.45851642 -11.53853989 0.31686783 C-10.89028087 0.28850499 -10.24202185 0.26014215 -9.57411861 0.23091984 C-6.38355446 0.10915731 -3.1921815 0.06221681 0 0 Z M6.13830948 52.04368973 C4.78696838 54.69970521 3.77446466 57.35033629 2.9279213 60.20569229 C2.10468551 62.76175806 0.7621771 64.7990437 -0.74874496 67.00510025 C-1.19935287 67.71609879 -1.64996078 68.42709732 -2.11422348 69.15964127 C-2.78989365 70.22009659 -2.78989365 70.22009659 -3.47921371 71.30197525 C-3.9792894 72.09080093 -4.47936508 72.87962662 -4.99459457 73.69235611 C-6.55042819 76.14654327 -8.10840725 78.59935768 -9.66671371 81.05197525 C-11.68964198 84.23815186 -13.71060562 87.42555977 -15.72921371 90.61447525 C-16.22002426 91.38960464 -16.71083481 92.16473404 -17.2165184 92.9633522 C-21.25123672 99.3538726 -25.20008695 105.7949466 -29.10250473 112.26706314 C-29.52717026 112.96823257 -29.95183578 113.66940201 -30.38936996 114.391819 C-30.7814061 115.0400563 -31.17344223 115.68829361 -31.57735825 116.35617447 C-32.66671371 118.05197525 -32.66671371 118.05197525 -34.53780746 120.3058815 C-35.89056325 121.97329033 -35.89056325 121.97329033 -35.37667465 123.91379166 C-34.6256656 126.17559954 -33.67529991 127.97455113 -32.43624496 130.0090065 C-31.97000717 130.78026871 -31.50376938 131.55153091 -31.02340317 132.3461647 C-30.25902939 133.59272842 -30.25902939 133.59272842 -29.47921371 134.86447525 C-28.94965073 135.73741226 -28.42008774 136.61034927 -27.87447739 137.50973892 C-26.14360076 140.36025352 -24.40537414 143.20620282 -22.66671371 146.05197525 C-21.46838375 148.02047371 -20.27046911 149.98922506 -19.07296371 151.95822525 C-17.28197021 154.90242726 -15.49033986 157.84622825 -13.69625473 160.78854752 C-9.87849225 167.05031917 -6.08440414 173.32545766 -2.33004379 179.62546158 C-0.82704407 182.14329145 0.70602522 184.61108365 2.33328629 187.05197525 C4.71419594 187.48706405 4.71419594 187.48706405 7.53641129 187.38010025 C8.64476334 187.37558853 9.75311539 187.37107681 10.89505386 187.36642838 C12.11217056 187.34515884 13.32928726 187.32388931 14.58328629 187.30197525 C16.46600235 187.2855397 16.46600235 187.2855397 18.38675308 187.26877213 C35.37170801 187.09976371 52.35595182 186.56664733 69.33328629 186.05197525 C67.70493392 189.98034571 66.11680427 193.67997091 63.80203629 197.2590065 C63.32613052 198.00231216 62.85022476 198.74561783 62.35989761 199.51144791 C61.85611588 200.28794693 61.35233414 201.06444595 60.83328629 201.86447525 C59.76305537 203.53426653 58.69407754 205.20486153 57.62625504 206.876194 C57.08275406 207.72616959 56.53925308 208.57614517 55.97928238 209.45187759 C52.82493526 214.43464189 49.77587198 219.48190397 46.72391129 224.52780533 C43.43303336 229.95222817 43.43303336 229.95222817 42.33328629 231.05197525 C35.50326823 232.19852438 28.73016615 232.21636428 21.81790543 232.24142838 C20.58273682 232.24972168 19.34756821 232.25801498 18.07497025 232.2665596 C15.40245365 232.28390687 12.72999121 232.29956727 10.05745506 232.31233597 C5.82428202 232.33269298 1.59117497 232.36032626 -2.6419487 232.38901138 C-11.62933927 232.44890247 -20.61676969 232.500843 -29.60421371 232.55197525 C-39.30585793 232.60718626 -49.00748203 232.66381194 -58.70906168 232.72952414 C-62.90973889 232.75770683 -67.11040894 232.78136119 -71.31113231 232.80144882 C-74.54809155 232.81809177 -77.78500966 232.84081917 -81.02193832 232.86252213 C-82.17390701 232.86670654 -83.3258757 232.87089096 -84.51275253 232.87520218 C-95.24569509 232.40776956 -95.24569509 232.40776956 -104.96358871 235.6808815 C-107.12437433 238.68913119 -109.06593575 241.78532612 -110.91671371 244.98947525 C-111.71817651 246.35051793 -112.52027006 247.71118937 -113.32296371 249.0715065 C-113.91851059 250.08591812 -113.91851059 250.08591812 -114.52608871 251.12082291 C-116.12406853 253.82630671 -117.76682014 256.50288926 -119.41671371 259.17697525 C-120.05608871 260.2133815 -120.69546371 261.24978775 -121.35421371 262.31760025 C-123.20506278 265.30924537 -125.06086982 268.29780163 -126.91671371 271.28635025 C-127.49324692 272.21560318 -128.06978012 273.14485611 -128.66378403 274.10226822 C-129.80780305 275.94576405 -130.9529347 277.78857003 -132.0993309 279.63058853 C-135.05180051 284.3879405 -137.92606593 289.16936487 -140.66671371 294.05197525 C-140.30545395 294.61892105 -139.94419418 295.18586685 -139.57198715 295.76999283 C-133.25395784 305.6870638 -126.93936451 315.60612168 -120.66671371 325.55197525 C-111.63475999 339.96635823 -111.63475999 339.96635823 -102.39413071 354.24606705 C-100.66671371 357.05197525 -100.66671371 357.05197525 -99.37594223 359.92392349 C-97.77134747 363.19149973 -96.293207 365.51489401 -93.66671371 368.05197525 C-88.32210488 369.64701805 -83.10470308 369.45929858 -77.59249496 369.30197525 C-76.02025967 369.29413944 -74.44799866 369.29046226 -72.87574387 369.29074478 C-69.5903936 369.27991753 -66.30836627 369.23258202 -63.02389145 369.15646744 C-58.81658384 369.05997517 -54.61260797 369.03399638 -50.40430546 369.03256607 C-47.16206745 369.02731982 -43.92054395 368.99556185 -40.67857552 368.95468521 C-39.12730407 368.93628445 -37.57595339 368.92362461 -36.02458763 368.91684341 C-33.85747026 368.90126956 -31.69364061 368.85262058 -29.52730942 368.79416275 C-28.29599792 368.77208755 -27.06468643 368.75001236 -25.79606247 368.72726822 C-22.50422335 368.31762137 -22.50422335 368.31762137 -20.36610031 365.70212173 C-19.80530273 364.82757339 -19.24450516 363.95302505 -18.66671371 363.05197525 C-17.9899559 362.01427994 -17.31319809 360.97658463 -16.61593246 359.907444 C-15.85892564 358.68670504 -15.10523378 357.46390646 -14.35421371 356.23947525 C-13.47418661 354.81879006 -12.59396535 353.39822512 -11.71358871 351.9777565 C-11.23212387 351.19867935 -10.75065903 350.4196022 -10.25460434 349.61691666 C-7.86610816 345.75874617 -5.46421319 341.90898818 -3.06051254 338.06027603 C-1.75876079 335.97532882 -0.45910958 333.8890686 0.83841324 331.80148697 C3.61001215 327.35229461 6.39078084 322.92049986 9.32938004 318.579319 C9.75984634 317.93817154 10.19031265 317.29702408 10.63382339 316.63644791 C11.74005181 315.00221102 12.86400814 313.38001171 13.98953629 311.7590065 C15.54458205 309.16783342 15.54458205 309.16783342 15.23563004 306.45822525 C14.25147588 303.83381418 13.08420772 301.97613705 11.39578629 299.73947525 C8.26278455 295.42601461 5.38266621 291.02188329 2.58328629 286.48947525 C-0.98829649 280.72485145 -4.60611366 274.99447122 -8.29171371 269.30197525 C-8.74876694 268.59540787 -9.20582016 267.88884048 -9.67672348 267.16086197 C-13.14621193 261.81504927 -16.69684462 256.5291192 -20.30343246 251.2746315 C-21.66671371 249.05197525 -21.66671371 249.05197525 -21.66671371 247.05197525 C-14.24761952 246.79790655 -6.82964995 246.62309854 0.59280777 246.50265884 C3.1160206 246.45244404 5.63894351 246.38425507 8.16116714 246.29758072 C11.79348585 246.17590699 15.42195438 246.11949304 19.05594254 246.07541275 C20.17912384 246.0237999 21.30230515 245.97218704 22.45952225 245.91901016 C30.16055329 245.9135257 30.16055329 245.9135257 33.56256485 249.21608353 C35.35622399 251.75795102 36.86773347 254.31071757 38.33328629 257.05197525 C39.14588535 258.28242267 39.97038615 259.50529972 40.81766129 260.7121315 C41.57437838 261.84523995 42.32956658 262.97937079 43.08328629 264.11447525 C43.500298 264.74095963 43.91730972 265.367444 44.34695816 266.01291275 C48.02089284 271.54838046 51.62713139 277.12680267 55.22464371 282.7121315 C58.23501264 287.37854802 61.29737397 292.00615817 64.39578629 296.61447525 C68.33083809 302.46986353 72.08316164 308.42418607 75.79446793 314.42331314 C78.04426841 318.04313609 80.35263799 321.58371522 82.83328629 325.05197525 C85.22134914 328.39304695 87.45791417 331.79013348 89.60472488 335.28883743 C90.43482622 336.62339032 91.27990789 337.94880261 92.14323807 339.26210403 C94.70821971 343.20400429 96.81046656 347.05666489 98.62381363 351.3996315 C101.52652192 357.65429615 104.64264713 362.98056433 110.33328629 367.05197525 C120.56671532 370.56417869 131.59921391 370.13643212 142.29153824 369.84469986 C146.55349184 369.73029527 150.78638111 369.81182511 155.04685879 369.94412994 C171.93593481 370.84925336 171.93593481 370.84925336 187.09808731 364.90878677 C191.47114721 359.78653765 193.96804104 354.139914 196.2209816 347.84732437 C198.01885758 343.32905605 200.68792692 339.4423838 203.39578629 335.42697525 C204.38413998 333.8852478 205.36900526 332.34127319 206.34891129 330.79416275 C206.83682144 330.02427017 207.3247316 329.25437759 207.82742691 328.46115494 C211.01764349 323.35722219 214.08834113 318.18035272 217.15652847 313.0024147 C220.36104158 307.60807942 223.69890885 302.36914799 227.32156754 297.2433815 C228.65249338 294.36056529 228.17201929 293.08643617 227.33328629 290.05197525 C226.12265216 287.63349962 226.12265216 287.63349962 224.56766129 285.251194 C224.0069191 284.35594009 223.44617691 283.46068619 222.86844254 282.53830338 C221.98479019 281.15288345 221.98479019 281.15288345 221.08328629 279.73947525 C220.50965347 278.82746353 219.93602066 277.91545181 219.34500504 276.97580338 C217.18575188 273.54509933 215.01752101 270.12036907 212.83133316 266.70676041 C212.15940933 265.64980972 212.15940933 265.64980972 211.47391129 264.5715065 C211.08235855 263.96024918 210.69080582 263.34899185 210.28738785 262.71921158 C209.33328629 261.05197525 209.33328629 261.05197525 208.33328629 258.05197525 C207.67328629 258.05197525 207.01328629 258.05197525 206.33328629 258.05197525 C206.05549332 257.47906754 205.77770035 256.90615982 205.49148941 256.31589127 C204.35025205 254.08513789 203.1111804 251.9653544 201.80203629 249.829319 C201.32121597 249.04363541 200.84039566 248.25795181 200.34500504 247.44845963 C199.84613785 246.63699478 199.34727066 245.82552994 198.83328629 244.98947525 C198.3344191 244.17414322 197.83555191 243.35881119 197.32156754 242.51877213 C195.36709773 239.33031401 193.40807605 236.1641599 191.33328629 233.05197525 C188.18945871 232.47158245 188.18945871 232.47158245 184.41189957 232.39401627 C183.69936523 232.36145233 182.9868309 232.3288884 182.25270462 232.29533768 C174.77246451 231.97860005 167.28370104 231.8462664 159.79813004 231.72702408 C156.2520498 231.66484628 152.71474086 231.54697652 149.17215347 231.37839127 C130.71738136 229.70551843 130.71738136 229.70551843 113.6558876 234.85159683 C109.43837533 239.41186017 107.27731049 244.65560614 105.28458023 250.47186661 C103.88609702 254.26484629 101.81654518 257.47749666 99.61844254 260.84885025 C98.90136707 262.02077906 98.1883807 263.19522099 97.47977066 264.37228775 C97.1364772 264.93721939 96.79318375 265.50215103 96.43948746 266.08420181 C95.36878532 267.84641474 94.29924436 269.60932908 93.22977066 271.37228775 C92.52605075 272.531176 91.82227602 273.69003097 91.11844254 274.84885025 C90.46762711 275.92070572 89.81681168 276.99256119 89.14627457 278.09689713 C87.56835785 280.66882063 85.95697506 283.21451988 84.32938004 285.75510025 C82.16064635 288.69477505 82.16064635 288.69477505 82.33328629 291.05197525 C79.5048745 290.47191984 77.77011983 289.61543181 75.989048 287.31808853 C74.51762913 284.94963213 73.13346315 282.54716135 71.77078629 280.11447525 C70.72380795 278.29922847 69.67425662 276.48546367 68.62234879 274.673069 C68.08513199 273.7434938 67.54791519 272.81391861 66.9944191 271.85617447 C63.86322335 266.5703258 60.48139241 261.43653458 57.07913589 256.32175064 C52.09723715 248.63132847 52.09723715 248.63132847 52.33328629 244.05197525 C53.7385111 240.79822707 55.59941989 237.89799309 57.52078629 234.92697525 C58.63718199 233.13823113 59.75305267 231.34915924 60.86844254 229.55978775 C61.44481461 228.64745377 62.02118668 227.73511978 62.61502457 226.79513931 C65.30120084 222.50672263 67.87378394 218.152111 70.45828629 213.80197525 C74.41211327 207.19375497 78.44355129 200.64090465 82.54690933 194.12472916 C85.85841374 188.85029083 89.07492418 183.52214917 92.27078629 178.17697525 C100.38960501 164.59801077 108.63785296 151.10332695 117.04422379 137.70041275 C117.41128433 137.10712173 117.77834488 136.51383072 118.15652847 135.90256119 C118.9978217 134.57953159 119.87231158 133.27737866 120.7678566 131.99045181 C121.23546402 131.30177017 121.70307144 130.61308853 122.18484879 129.90353775 C122.61877945 129.28559341 123.05271011 128.66764908 123.49979019 128.03097916 C124.65870556 125.27931895 124.23152739 123.87955568 123.33328629 121.05197525 C121.96620207 118.28070461 121.96620207 118.28070461 120.22391129 115.46603775 C119.59162613 114.41190689 118.95934097 113.35777603 118.30789566 112.27170181 C115.26182171 107.3048839 112.19013737 102.35601204 109.08328629 97.42697525 C104.4953589 90.12103298 99.93651005 82.80069262 95.45828629 75.42697525 C90.87357172 67.88669244 86.16429843 60.4372057 81.33328629 53.05197525 C80.76397888 52.01873627 80.19467148 50.98549728 79.60811234 49.92094803 C77.60601719 46.82016107 77.60601719 46.82016107 74.40721512 46.22951126 C73.2707605 46.19759186 72.13430588 46.16567245 70.96341324 46.1327858 C69.67139496 46.08482361 68.37937668 46.03686142 67.04820633 45.98744583 C65.63936297 45.96830951 64.23047676 45.9521332 62.82156754 45.938694 C61.36910065 45.91177299 59.91664195 45.88440706 58.46419144 45.85661697 C55.41847971 45.80717116 52.37375536 45.78405486 49.32767105 45.77536392 C46.21225028 45.76244091 43.10427316 45.70002974 39.99075699 45.59079361 C21.19929813 43.83507605 21.19929813 43.83507605 6.13830948 52.04368973 Z " fill="#EEFEFE" transform="translate(1455.6667137145996,957.9480247497559)"/>
<path d="M0 0 C17.49 0 34.98 0 53 0 C53.495 0.99 53.495 0.99 54 2 C36.51 2 19.02 2 1 2 C0.67 2.66 0.34 3.32 0 4 C0 2.68 0 1.36 0 0 Z " fill="#E2FCF6" transform="translate(1434,1204)"/>
</svg>
