<?xml version="1.0" encoding="UTF-8"?>
<svg version="1.1" xmlns="http://www.w3.org/2000/svg" width="3000" height="2400">
<path d="M0 0 C45.84427893 -0.11454059 91.68854266 -0.2025972 137.53293657 -0.25532665 C142.95001785 -0.26157989 148.36709884 -0.26805153 153.78417969 -0.2746582 C154.86258527 -0.27596976 155.94099085 -0.27728131 157.05207539 -0.2786326 C174.49446515 -0.30036631 191.9367722 -0.33977661 209.37911296 -0.38576398 C227.28762158 -0.43258528 245.196087 -0.46030739 263.10465431 -0.47044247 C274.14783354 -0.47728986 285.19077891 -0.49888651 296.23388612 -0.53958233 C303.8150973 -0.56609077 311.39618827 -0.5739827 318.97744238 -0.56750689 C323.34605958 -0.56431657 327.71426925 -0.56907318 332.08281326 -0.59602737 C336.09311475 -0.62058872 340.10273962 -0.6214418 344.11307406 -0.60449447 C345.55347065 -0.60240396 346.99391172 -0.60855195 348.43422246 -0.62441591 C367.44067466 -0.82135326 383.91194959 5.58330185 397.7578125 18.765625 C398.49773438 19.50296875 399.23765625 20.2403125 400 21 C400.63679687 21.61359375 401.27359375 22.2271875 401.9296875 22.859375 C412.73608578 34.09802922 417.71708002 50.12363087 417.75610352 65.46142578 C417.21860257 78.44676601 413.01074517 91.12316584 409.515625 103.56445312 C408.11822839 108.54810108 406.77144162 113.54455338 405.43075562 118.54371643 C404.22596669 123.02653265 403.0059726 127.50512184 401.78253174 131.98287964 C401.1841257 134.17835651 400.58959335 136.37489339 399.99920654 138.57254028 C394.30576377 159.68816227 387.82192688 178.09780789 368.57421875 190.546875 C358.94178838 195.98430155 348.69044845 198.57158595 338 201 C338.88300781 201.52207031 339.76601563 202.04414062 340.67578125 202.58203125 C356.64382001 212.26525386 368.74358232 224.67220654 373.5 243.125 C375.80992105 253.29274524 375.33628985 262.01981343 373.28125 272.13671875 C373.10416504 273.0128331 372.92708008 273.88894745 372.74462891 274.79161072 C370.78744134 284.29030411 368.43660457 293.67721745 366 303.0625 C365.76655884 303.96600189 365.53311768 304.86950378 365.29260254 305.80038452 C363.54960044 312.53922494 361.77976926 319.27078779 360 326 C359.74162354 326.97976807 359.48324707 327.95953613 359.21704102 328.96899414 C357.67027648 334.8266977 356.10283354 340.67827572 354.50830078 346.52316284 C354.01031189 348.35496753 353.51699583 350.18805023 353.02880859 352.02249146 C346.85182294 375.165587 336.66218482 394.67972466 315.25 407.3125 C305.82667376 412.60683665 295.87028722 415.74967498 285 415 C285 415.66 285 416.32 285 417 C152.34 417 19.68 417 -117 417 C-115.9636396 412.85455838 -115.34951602 412.03105403 -112.5 409.125 C-108.97256593 405.28669494 -106.05103271 401.31382038 -103.25 396.9375 C-102.88583984 396.37240723 -102.52167969 395.80731445 -102.14648438 395.22509766 C-97.46235211 387.78143775 -94.3025464 380.43546391 -91.98828125 371.94921875 C-91.56700706 370.44322113 -91.56700706 370.44322113 -91.13722229 368.90679932 C-90.18749454 365.50257704 -89.24997596 362.09511503 -88.3125 358.6875 C-87.62117531 356.19783974 -86.92926 353.70834343 -86.23681641 351.21899414 C-84.03517303 343.29402996 -81.85167187 335.36410099 -79.66976166 327.4336853 C-78.74344055 324.0677505 -77.81609483 320.70209826 -76.8888073 317.3364296 C-71.10560492 296.34468063 -65.33962615 275.34822399 -59.58210373 254.34941864 C-55.77384488 240.4602175 -51.95919728 226.57279445 -48.13671875 212.6875 C-47.66490145 210.97351082 -47.19308444 209.25952156 -46.7212677 207.54553223 C-46.02320581 205.00969502 -45.32513969 202.47385898 -44.62706089 199.93802643 C-35.60460197 167.16211847 -26.62690726 134.37426928 -17.69769669 101.57283783 C-15.1818563 92.33109931 -12.65919608 83.09124771 -10.13131142 73.85279655 C-8.90033389 69.35339336 -7.67049487 64.85367877 -6.44039917 60.35403442 C-5.77881238 57.93531596 -5.11665443 55.51675363 -4.45388794 53.09835815 C-3.54977376 49.79905753 -2.64770826 46.49920319 -1.74609375 43.19921875 C-1.48037567 42.23179749 -1.21465759 41.26437622 -0.94088745 40.26763916 C-0.69798981 39.37711853 -0.45509216 38.4865979 -0.20483398 37.5690918 C0.00512711 36.80219528 0.2150882 36.03529877 0.43141174 35.24516296 C1.70359316 30.22174827 2.16209555 25.6352496 2.1875 20.4375 C2.20167969 19.13683594 2.21585937 17.83617187 2.23046875 16.49609375 C2.14479167 12.83214178 1.60774178 9.32904413 0.9855957 5.71899414 C0.71027763 4.10922447 0.71027763 4.10922447 0.42939758 2.4669342 C0.28769638 1.65284592 0.14599518 0.83875763 0 0 Z M155 67 C152.91996848 73.03101948 151.09042615 79.08588846 149.45629883 85.25170898 C149.22177505 86.12763199 148.98725128 87.00355499 148.74562073 87.90602112 C147.97997467 90.76864376 147.2183684 93.63232238 146.45703125 96.49609375 C145.92340578 98.49630769 145.38960481 100.49647482 144.8556366 102.49659729 C143.74188083 106.6710005 142.63010733 110.84592507 141.51977539 115.02124023 C140.09424058 120.38127976 138.66393645 125.74003296 137.23219776 131.09841824 C136.13147383 135.21989262 135.03314029 139.34200101 133.9355526 143.4643116 C133.40876448 145.44173302 132.88125054 147.41896123 132.35300636 149.39599419 C131.61809081 152.14804343 130.88636551 154.90092093 130.15551758 157.65405273 C129.93581299 158.47428925 129.7161084 159.29452576 129.48974609 160.13961792 C128.39587819 164.01632289 128.39587819 164.01632289 128 168 C141.16094853 168.06957872 154.32185314 168.1228514 167.4829483 168.15543652 C173.59449267 168.17107748 179.70591098 168.19228739 185.81738281 168.22631836 C191.71774023 168.25896733 197.61797656 168.27686482 203.51841736 168.28463173 C205.76702276 168.29016526 208.0156217 168.30097088 210.26417542 168.31719017 C213.41910001 168.33903767 216.57352729 168.34196381 219.72851562 168.34057617 C220.65352875 168.351362 221.57854187 168.36214783 222.53158569 168.3732605 C230.40294702 168.33591592 237.36767092 166.61413584 243.22114563 161.04347229 C249.56647642 153.75422599 252.25922305 143.7968964 254.61328125 134.62890625 C254.91316452 133.50354965 255.21304779 132.37819305 255.52201843 131.21873474 C256.46445505 127.66976712 257.38857754 124.11632678 258.3125 120.5625 C258.9500045 118.15398758 259.58866685 115.74578132 260.22851562 113.33789062 C261.39138222 108.94391492 262.55140894 104.54927099 263.6965332 100.15063477 C263.92492386 99.27415787 264.15331451 98.39768097 264.3886261 97.49464417 C266.31584363 89.63084437 267.34795503 83.08509272 263.25390625 75.82421875 C259.55609941 70.44454338 255.56992132 68.63805185 249.47105598 67.38580704 C245.48267836 66.76309992 241.56222519 66.73795431 237.53295898 66.77294922 C236.18499489 66.77251114 236.18499489 66.77251114 234.80979919 66.77206421 C231.87179537 66.77344538 228.93405267 66.7889489 225.99609375 66.8046875 C223.94629556 66.80842195 221.89649557 66.81126688 219.84669495 66.81326294 C214.47585034 66.82086538 209.10511549 66.84048452 203.73431396 66.8626709 C198.24411503 66.88320261 192.75389821 66.89228027 187.26367188 66.90234375 C176.50906661 66.92373381 165.75454246 66.95782851 155 67 Z M109 234 C102.36778794 255.97357815 96.63286479 278.17218168 90.85742188 300.38311768 C89.78527117 304.50271518 88.70957202 308.6213826 87.63379765 312.74003506 C86.59732842 316.70895344 85.56221909 320.67822535 84.5276165 324.64763069 C84.03383939 326.54201608 83.53981821 328.43633786 83.04554939 330.33059502 C82.36250241 332.9498023 81.68110385 335.5694324 81.00024414 338.18920898 C80.79617447 338.97077362 80.5921048 339.75233826 80.3818512 340.55758667 C79.41651268 343.73838245 79.41651268 343.73838245 79 347 C91.03149174 347.09302904 103.0628967 347.1639313 115.09467602 347.20724869 C120.68263214 347.2280478 126.27034064 347.25622421 131.8581543 347.30175781 C137.25928973 347.34549053 142.66018825 347.36919471 148.0614872 347.37950897 C150.11339352 347.38685138 152.16528814 347.40118825 154.21709251 347.42292023 C174.26370018 347.96009256 174.26370018 347.96009256 191.5 338.875 C192.2528125 338.19179687 193.005625 337.50859375 193.78125 336.8046875 C199.66364305 329.36884558 202.27746546 320.6490637 204.75 311.625 C205.0807251 310.44413818 205.4114502 309.26327637 205.75219727 308.04663086 C209.48239342 294.55452439 212.86448919 280.96950592 216.21484375 267.37890625 C216.38114792 266.70609116 216.54745209 266.03327606 216.71879578 265.34007263 C219.84793445 253.66899414 219.84793445 253.66899414 217.4375 242.1875 C214.69765684 237.9851071 210.82058273 235.85344987 206.03672409 234.40595341 C203.93883798 233.98780938 202.05009342 233.87691787 199.91241455 233.87974548 C199.10757126 233.87837082 198.30272797 233.87699615 197.47349548 233.87557983 C196.1625869 233.88097275 196.1625869 233.88097275 194.82519531 233.88647461 C193.898022 233.88632858 192.97084869 233.88618256 192.01557922 233.8860321 C188.95307063 233.88672838 185.89062296 233.89450751 182.828125 233.90234375 C180.7039188 233.90420894 178.57971216 233.90563237 176.45550537 233.90663147 C170.86597505 233.91044869 165.27647073 233.92027222 159.68695068 233.93133545 C153.98271028 233.94156663 148.27846568 233.94613275 142.57421875 233.95117188 C131.38280108 233.96189518 120.1914027 233.97896209 109 234 Z " fill="#EFFFFF" transform="translate(373,931)"/>
<path d="M0 0 C1.0650097 -0.00507454 2.13001941 -0.01014909 3.22730213 -0.0153774 C4.41188745 -0.01587516 5.59647277 -0.01637292 6.81695461 -0.01688576 C8.06425411 -0.02126801 9.31155361 -0.02565027 10.59665006 -0.03016531 C14.07518469 -0.04216538 17.55370543 -0.04778729 21.03225672 -0.05234647 C24.77832908 -0.05829034 28.52438471 -0.06990393 32.27044582 -0.08063698 C41.33062072 -0.10520019 50.39080118 -0.11979966 59.45099917 -0.13269705 C62.01121607 -0.13640799 64.57143242 -0.14038136 67.13164878 -0.14444971 C83.03418421 -0.16969981 98.93672048 -0.19175075 114.83927155 -0.20417786 C118.52612276 -0.20710755 122.21297395 -0.2100692 125.8998251 -0.21308327 C126.81617198 -0.21382932 127.73251886 -0.21457537 128.67663383 -0.21534403 C143.49356534 -0.2279751 158.31037623 -0.261164 173.12725145 -0.3028851 C188.34636818 -0.34538624 203.56542335 -0.36888287 218.78459924 -0.37409842 C227.32649338 -0.37750474 235.86819955 -0.38916631 244.41003513 -0.42220116 C251.69184285 -0.45031632 258.97342411 -0.46115142 266.25528187 -0.4500057 C269.96571525 -0.44484684 273.67567532 -0.44752215 277.38603878 -0.47247124 C305.2761702 -0.64961566 325.743468 4.28822488 346.32243252 24.28545189 C359.0578773 37.8016136 365.04419839 54.80400543 364.55753994 73.23003197 C364.20358247 80.04792007 362.69019783 86.52302227 361.13102627 93.15263939 C360.81645952 94.5142167 360.5021189 95.87584626 360.18798733 97.23752403 C356.6918046 112.2794648 352.81912841 127.22601703 348.89884472 142.16195488 C348.28785554 144.49199541 347.67894923 146.82257133 347.07063198 149.15331078 C340.08205959 175.92360028 332.87868978 202.6335872 325.53678703 229.30900288 C324.02980204 234.78571922 322.53430501 240.26553046 321.04112148 245.74602318 C320.12928169 249.07213409 319.20041607 252.39315606 318.27018642 255.71416283 C317.71268266 257.74815067 317.15584038 259.78231999 316.59977627 261.81670189 C316.34495983 262.70705132 316.09014339 263.59740074 315.82760525 264.51473045 C312.11097124 278.31323142 314.53647584 290.66715044 321.11149502 303.13701439 C321.11149502 304.12701439 321.11149502 305.11701439 321.11149502 306.13701439 C272.27149502 306.13701439 223.43149502 306.13701439 173.11149502 306.13701439 C170.14149502 291.28701439 170.14149502 291.28701439 167.11149502 276.13701439 C165.77087002 278.13763939 164.43024502 280.13826439 163.04899502 282.19951439 C156.09841725 292.30375725 147.60066368 301.29856696 135.11149502 304.13701439 C131.73649502 304.26201439 131.73649502 304.26201439 129.11149502 304.13701439 C129.11149502 304.79701439 129.11149502 305.45701439 129.11149502 306.13701439 C87.53149502 306.13701439 45.95149502 306.13701439 3.11149502 306.13701439 C3.11149502 305.47701439 3.11149502 304.81701439 3.11149502 304.13701439 C2.55204189 304.18342064 1.99258877 304.22982689 1.41618252 304.27763939 C-17.97127354 305.15038661 -37.04664148 294.45828871 -51.07600498 281.88701439 C-65.81691865 268.14786418 -75.51676969 250.18717532 -76.34065342 229.88652611 C-76.53502921 218.97173062 -74.78899704 209.21831905 -71.87825108 198.7488308 C-70.88094542 195.10942777 -69.92637917 191.46105203 -68.98037815 187.80806541 C-68.03265869 184.15144145 -67.0750569 180.49744769 -66.11546421 176.84392357 C-65.63619721 175.0181177 -65.15859866 173.19187293 -64.68278599 171.3651638 C-62.05328942 161.31119956 -59.33554902 151.57320895 -54.88850498 142.13701439 C-54.37287998 141.03486595 -53.85725498 139.93271751 -53.32600498 138.79717064 C-42.38635145 119.02850326 -23.77020635 108.16013953 -2.57600498 101.88701439 C4.58057695 99.85890058 11.44902455 98.98747188 18.87806606 98.99898338 C19.62907058 98.9961621 20.38007509 98.99334082 21.15383732 98.99043405 C23.65389405 98.9821446 26.15390618 98.9807547 28.65397549 98.97929955 C30.45319142 98.97462723 32.25240618 98.96948298 34.05161953 98.96390343 C37.91860117 98.95265132 41.78557523 98.94420334 45.65256786 98.93778419 C51.77172851 98.92707477 57.89083446 98.90682286 64.00996304 98.88466454 C81.40787663 98.8228366 98.80578637 98.76872677 116.20378017 98.7356472 C125.81834924 98.71728676 135.43282598 98.68833622 145.04732716 98.64764249 C150.13085206 98.62660315 155.2142608 98.61111949 160.29783154 98.60883522 C165.07989767 98.60668369 169.86172163 98.59076284 174.64371395 98.5644455 C176.39438827 98.55727134 178.14509199 98.55514236 179.8957777 98.55854797 C194.18442118 99.0700388 194.18442118 99.0700388 206.50602627 92.92217064 C208.42248398 89.59751286 209.68253517 86.22544578 210.79899502 82.57451439 C211.0110458 81.91515892 211.22309658 81.25580345 211.44157314 80.57646751 C213.89613444 72.87208743 216.04937309 65.40034615 212.54899502 57.69951439 C208.72139335 53.67562546 204.49295279 52.03285631 199.03082275 51.75669765 C197.50162521 51.73906845 195.97218516 51.73757985 194.44293118 51.74933434 C193.59477681 51.7439488 192.74662245 51.73856326 191.87276644 51.73301452 C189.0434203 51.71875872 186.21454362 51.72583299 183.38517666 51.73296165 C181.3510135 51.72725652 179.31685355 51.7202917 177.28269863 51.71216393 C171.76357364 51.69422455 166.24460759 51.69540348 160.7254622 51.70110631 C156.10886763 51.7041998 151.49230352 51.69810328 146.87571329 51.69206756 C135.97308022 51.67801876 125.07052549 51.67958406 114.1678915 51.69096947 C102.94980605 51.70242607 91.73196036 51.68841715 80.51390654 51.66157299 C70.86262272 51.63934931 61.21141378 51.63279434 51.56010622 51.6386494 C45.80506813 51.64200728 40.05018336 51.63968315 34.29516697 51.62239838 C28.87367829 51.60682702 23.45254124 51.61099701 18.03106594 51.62970352 C16.05272325 51.63336266 14.07435394 51.63036009 12.09603596 51.61981773 C0.08448543 51.5607507 -10.35877814 52.64827299 -21.88850498 56.13701439 C-23.21943188 56.47982993 -24.55154943 56.81851988 -25.88850498 57.13701439 C-23.84740571 50.02054564 -21.48817923 43.07227434 -18.91194248 36.13310814 C-18.54122623 35.12861122 -18.17050999 34.1241143 -17.78855991 33.08917809 C-17.01184557 30.98697649 -16.23361841 28.88533327 -15.45393467 26.78423119 C-14.25583379 23.5538308 -13.06405984 20.32114423 -11.87287998 17.08818626 C-11.11544126 15.04052192 -10.35764192 12.99299093 -9.59944248 10.94560814 C-9.24216068 9.97594612 -8.88487888 9.0062841 -8.51677036 8.00723839 C-8.18617619 7.11863625 -7.85558201 6.2300341 -7.51496983 5.31450462 C-7.0788689 4.13730103 -7.0788689 4.13730103 -6.63395786 2.93631554 C-5.18372338 -0.56411842 -3.59989005 0.00905489 0 0 Z M87.81730556 162.43657494 C81.04485798 173.15792069 79.04156332 188.65349366 76.03459072 200.85600853 C75.29656201 203.83433284 74.53716058 206.80671997 73.77751064 209.77959251 C69.06429635 226.32062876 69.06429635 226.32062876 71.79899502 242.69951439 C75.87631019 246.99722498 79.02636714 249.98701082 85.13836575 250.28418541 C86.38061413 250.29402962 87.62286251 250.30387383 88.90275478 250.31401634 C89.58938702 250.32058754 90.27601925 250.32715874 90.98345852 250.33392906 C93.2566073 250.35364101 95.52968987 250.36532375 97.80290127 250.37529564 C98.58201303 250.37937117 99.3611248 250.38344669 100.16384602 250.38764572 C104.29263321 250.40850371 108.42138725 250.42280308 112.55021572 250.4321804 C116.7946208 250.44320694 121.03849613 250.47756345 125.28271484 250.5173521 C128.56263032 250.54363342 131.84242218 250.55188268 135.12243366 250.55546188 C136.68558651 250.56030307 138.24873476 250.57184587 139.81178379 250.59049988 C149.76850525 250.70188164 158.28182322 250.29463133 166.67106533 244.31157494 C172.60453632 237.6843367 174.70442341 230.37162233 176.86149502 221.94951439 C177.2661843 220.44700788 177.67298126 218.94506773 178.08170986 217.44365501 C179.20744939 213.27843494 180.29781972 209.10462275 181.38261318 204.92857933 C182.43075487 200.91427214 183.50041132 196.90576709 184.5684042 192.89670372 C187.01809708 183.69214584 189.44802992 174.482252 191.83805752 165.26201439 C192.06878963 164.38232491 192.29952175 163.50263542 192.53724575 162.59628868 C192.84977795 161.38281509 192.84977795 161.38281509 193.16862392 160.14482689 C193.35164059 159.43987083 193.53465725 158.73491478 193.72321987 158.00859642 C194.21306151 155.96601101 194.21306151 155.96601101 194.11149502 153.13701439 C182.1240334 153.04421068 170.13665768 152.97319655 158.14890957 152.9297657 C152.58210947 152.90891786 147.01555571 152.88065111 141.44889736 152.83525658 C136.07372024 152.79169933 130.69877963 152.7678562 125.3234396 152.75750542 C123.27577398 152.75013181 121.22812086 152.73573287 119.1805563 152.71409416 C116.30569192 152.68492911 113.43179674 152.68106389 110.55680752 152.68291283 C109.71595104 152.66853172 108.87509457 152.65415062 108.00875759 152.63933372 C99.70581935 152.69686898 92.9780055 155.85336935 87.81730556 162.43657494 Z " fill="#EFFFFF" transform="translate(839.8885049819946,1041.862985610962)"/>
<path d="M0 0 C2.31279158 -0.00435436 4.62558172 -0.00953991 6.93836975 -0.01548767 C13.18670176 -0.02881404 19.43497303 -0.02946322 25.68331647 -0.02692437 C30.91863101 -0.02584988 36.15393351 -0.03075046 41.38924545 -0.03552979 C54.45936855 -0.04723575 67.52945731 -0.04641262 80.59958261 -0.03997298 C91.90096148 -0.03481186 103.20225395 -0.04604316 114.50361574 -0.0650712 C126.15572635 -0.08453664 137.80779627 -0.0926901 149.45992321 -0.08894795 C155.98237721 -0.0871449 162.50475214 -0.0896724 169.02719307 -0.10366249 C175.16936745 -0.11634504 181.3113706 -0.11419924 187.45354271 -0.1012516 C189.69102667 -0.09890842 191.92852308 -0.10153798 194.16599274 -0.10987473 C224.95873539 -0.21621457 253.54490093 3.65344584 277.01733398 25.22387695 C288.50480843 36.98006425 293.55852763 52.98339213 294.70874023 69.0246582 C294.76215576 69.70254395 294.81557129 70.38042969 294.87060547 71.07885742 C296.55908722 104.28949397 277.01198052 157.81169707 271.89624023 178.2746582 C189.06624023 178.2746582 106.23624023 178.2746582 20.89624023 178.2746582 C20.23624023 181.2446582 19.57624023 184.2146582 18.89624023 187.2746582 C18.21117264 189.77630771 17.50193491 192.27147831 16.76733398 194.7590332 C16.57277115 195.4225177 16.37820831 196.0860022 16.17774963 196.76959229 C15.56585076 198.85544147 14.95018007 200.94014693 14.33374023 203.0246582 C13.71402388 205.12353394 13.09522045 207.22266024 12.47901917 209.3225708 C11.92298752 211.21709002 11.36368835 213.11064935 10.80419922 215.00415039 C8.09329852 224.7689328 7.56872471 233.95385554 11.89624023 243.2746582 C12.20561523 244.0584082 12.51499023 244.8421582 12.83374023 245.6496582 C14.25876151 247.8291025 15.48161393 248.29575565 17.89624023 249.2746582 C19.03061523 249.7902832 20.16499023 250.3059082 21.33374023 250.8371582 C26.90550313 253.08541341 31.89928573 253.42331405 37.86199951 253.42182922 C38.65873683 253.42550591 39.45547415 253.4291826 40.27635503 253.4329707 C42.94360199 253.44397498 45.61080994 253.44784594 48.27807617 253.45166016 C50.19209414 253.45792759 52.1061109 253.46457464 54.02012634 253.47157288 C60.30694739 253.49259389 66.59376861 253.50297795 72.88061523 253.51293945 C75.04991926 253.51698866 77.21922315 253.52110563 79.38852692 253.52528954 C89.58832145 253.54434208 99.78810876 253.55856929 109.98791766 253.5669015 C121.73142809 253.57665466 133.47474907 253.60292363 145.21819282 253.6434024 C154.31232853 253.67366409 163.40641028 253.68838014 172.50059533 253.69168252 C177.92316872 253.69402282 183.34553976 253.7028487 188.76805878 253.72814369 C193.88006754 253.75160384 198.99174333 253.75558626 204.10379219 253.74538231 C205.96723355 253.74489106 207.83069231 253.75108817 209.69408226 253.76493835 C224.72803629 253.87031352 237.83217941 251.73612961 251.89624023 246.2746582 C251.25522494 250.70382631 249.57821595 254.43560174 247.65014648 258.42700195 C247.32014145 259.12241592 246.99013641 259.8178299 246.65013123 260.53431702 C245.59156892 262.76280145 244.5255924 264.98763218 243.45874023 267.2121582 C237.11443664 280.49945532 230.9908993 293.86640826 224.89624023 307.2746582 C129.85624023 307.2746582 34.81624023 307.2746582 -63.10375977 307.2746582 C-63.10375977 306.6146582 -63.10375977 305.9546582 -63.10375977 305.2746582 C-64.23813477 305.3571582 -65.37250977 305.4396582 -66.54125977 305.5246582 C-78.3865859 305.50597472 -90.55881106 301.35296211 -101.10375977 296.2746582 C-102.01383789 295.85700195 -102.92391602 295.4393457 -103.86157227 295.0090332 C-118.6877776 287.65929039 -130.30583203 274.70737762 -136.10375977 259.2746582 C-143.76991064 236.14843639 -138.51719209 213.64178357 -132.64282227 190.76293945 C-132.09074184 188.58451763 -131.53943922 186.40589856 -130.98886108 184.22709656 C-129.83295499 179.66096102 -128.67086549 175.09646371 -127.50366211 170.53320312 C-126.04558609 164.83263362 -124.59789327 159.1295015 -123.15430069 153.4252491 C-119.51107967 139.03127824 -115.82363205 124.64900248 -112.10375977 110.2746582 C-111.82717026 109.20467339 -111.55058075 108.13468857 -111.26560974 107.03227997 C-109.65272194 100.79808951 -108.02860359 94.5670008 -106.38868332 88.33986473 C-105.89132591 86.4475613 -105.39660242 84.55456309 -104.90486526 82.6607914 C-99.18091516 60.65026605 -92.41669265 40.79905503 -76.10375977 24.2746582 C-75.53141602 23.64172852 -74.95907227 23.00879883 -74.36938477 22.35668945 C-69.6384618 17.25405111 -64.09103955 13.76070175 -58.10375977 10.2746582 C-57.43473633 9.8827832 -56.76571289 9.4909082 -56.07641602 9.0871582 C-38.72719373 -0.30269572 -19.14207492 -0.02392646 0 0 Z M55.70874023 60.0246582 C53.08697463 63.44141368 51.57624318 67.20214337 50.08764648 71.20825195 C49.82994476 71.89992966 49.57224304 72.59160736 49.30673218 73.304245 C46.27875641 81.66824728 43.99918174 90.23570932 41.74389648 98.83398438 C41.00967825 101.63120703 40.26245043 104.42472641 39.51342773 107.21801758 C39.03872369 109.00362679 38.56473738 110.789427 38.09155273 112.57543945 C37.75886887 113.82216179 37.75886887 113.82216179 37.41946411 115.09407043 C36.60090689 118.22783744 35.89624023 121.02113852 35.89624023 124.2746582 C69.55624023 124.2746582 103.21624023 124.2746582 137.89624023 124.2746582 C147.68172068 96.62708683 147.68172068 96.62708683 145.29467773 64.0559082 C140.99240289 58.57591567 136.60992959 55.19004716 129.89624023 53.2746582 C126.85217639 52.96350983 126.85217639 52.96350983 123.66650391 52.98413086 C122.4547197 52.97137115 121.24293549 52.95861145 119.99443054 52.94546509 C118.04897087 52.94212662 118.04897087 52.94212662 116.06420898 52.9387207 C114.70428836 52.93228378 113.3443691 52.92555477 111.98445129 52.91854858 C109.1391784 52.90660564 106.29402664 52.90286461 103.44873047 52.90405273 C99.82414215 52.90425563 96.2003405 52.87697204 92.57593822 52.84250832 C89.76785297 52.8201378 86.95995391 52.81621828 84.15178871 52.81727219 C82.17276308 52.81380147 80.19379558 52.79220242 78.21488953 52.77017212 C69.43656267 52.81440199 62.2830762 53.84832296 55.70874023 60.0246582 Z " fill="#EFFFFF" transform="translate(2115.103759765625,1040.725341796875)"/>
<path d="M0 0 C62.7 0 125.4 0 190 0 C190.99 4.29 191.98 8.58 193 13 C194.77387512 16.7874631 196.53845838 20.28251393 198.625 23.875 C199.16133057 24.82697266 199.69766113 25.77894531 200.25024414 26.75976562 C201.8132818 29.51880808 203.39969789 32.26243529 205 35 C205.60835693 36.04075684 205.60835693 36.04075684 206.22900391 37.10253906 C207.9887292 40.0922804 209.77744228 43.06298048 211.5859375 46.0234375 C214.63652397 51.02264795 217.59259789 56.07760852 220.5625 61.125 C224.84132893 68.39590408 229.18549266 75.61178638 233.70703125 82.734375 C235 85 235 85 235 87 C240.40798603 84.04439033 245.34832287 80.70771668 250.3125 77.0625 C251.91141417 75.89837683 253.51037378 74.73431609 255.109375 73.5703125 C255.92083984 72.97766602 256.73230469 72.38501953 257.56835938 71.77441406 C261.39176342 68.98440396 265.22621206 66.20975696 269.0625 63.4375 C269.80669189 62.89939697 270.55088379 62.36129395 271.31762695 61.80688477 C276.35487667 58.17072437 281.41900229 54.57471028 286.5 51 C295.38888916 44.74290706 304.22121071 38.41071137 313 32 C313.72171387 31.47341797 314.44342773 30.94683594 315.18701172 30.40429688 C333.1805497 17.87567432 333.1805497 17.87567432 345 0 C380.97 0 416.94 0 454 0 C452.91235081 3.26294757 452.51148783 3.62169918 449.81640625 5.4609375 C449.14544922 5.92564453 448.47449219 6.39035156 447.78320312 6.86914062 C447.05037109 7.36607422 446.31753906 7.86300781 445.5625 8.375 C444.00058627 9.45469439 442.43941182 10.53545887 440.87890625 11.6171875 C440.0708252 12.1750293 439.26274414 12.73287109 438.43017578 13.30761719 C434.58274272 15.98698287 430.79228609 18.74340661 427 21.5 C420.50019358 26.21146654 413.96134539 30.8629872 407.39453125 35.48046875 C402.2343328 39.11454566 397.1107106 42.79671401 392 46.5 C385.49941517 51.21040657 378.9613612 55.86297608 372.39453125 60.48046875 C367.2343328 64.11454566 362.1107106 67.79671401 357 71.5 C350.49941517 76.21040657 343.9613612 80.86297608 337.39453125 85.48046875 C332.2343328 89.11454566 327.1107106 92.79671401 322 96.5 C316.19433489 100.70685888 310.36480754 104.8759882 304.5 109 C297.00174958 114.27414861 289.55691652 119.61906717 282.140625 125.0078125 C279.58532305 126.86269422 277.01717959 128.69373863 274.421875 130.4921875 C273.41640625 131.19601562 272.4109375 131.89984375 271.375 132.625 C270.51648437 133.21539063 269.65796875 133.80578125 268.7734375 134.4140625 C268.18820312 134.93742187 267.60296875 135.46078125 267 136 C267 139.45803974 267.72095961 140.58788451 269.46484375 143.5234375 C270.00858643 144.44664795 270.5523291 145.3698584 271.11254883 146.32104492 C271.71478271 147.3288501 272.3170166 148.33665527 272.9375 149.375 C274.23181009 151.56638307 275.52607917 153.75779035 276.8203125 155.94921875 C277.51187436 157.11517241 278.20360848 158.28102391 278.89550781 159.44677734 C280.98127283 162.96410377 283.05151522 166.49037521 285.1171875 170.01953125 C285.46002274 170.60524902 285.80285797 171.1909668 286.15608215 171.79443359 C286.85492142 172.98852076 287.55371778 174.18263304 288.25247192 175.37677002 C290.04790519 178.44371222 291.84629265 181.50892085 293.64453125 184.57421875 C297.57773714 191.2796157 301.50936985 197.98593381 305.44052124 204.6925354 C307.21027838 207.71173078 308.98014478 210.73086211 310.75 213.75 C311.45833386 214.95833303 312.16666719 216.16666636 312.875 217.375 C313.225625 217.973125 313.57625 218.57125 313.9375 219.1875 C315 221 316.0625 222.8125 317.125 224.625 C317.47557465 225.22303436 317.82614929 225.82106873 318.18734741 226.43722534 C318.89620608 227.64646441 319.60504802 228.85571328 320.31387329 230.06497192 C322.07653254 233.07202784 323.8394751 236.07891692 325.60302734 239.08544922 C328.88818962 244.68672659 332.17060774 250.28955643 335.44329834 255.89813232 C336.96917582 258.51271619 338.49661776 261.12638452 340.02416992 263.73999023 C340.74353421 264.97179589 341.46215378 266.20403684 342.17993164 267.43676758 C350.65858255 282.24058412 350.65858255 282.24058412 360.6875 296 C361.41324219 296.886875 362.13898438 297.77375 362.88671875 298.6875 C364.88931973 301.03946375 364.88931973 301.03946375 367.26953125 302.625 C368.12611328 303.305625 368.12611328 303.305625 369 304 C369 304.99 369 305.98 369 307 C306.3 307 243.6 307 179 307 C177.68 302.05 176.36 297.1 175 292 C166.97426461 270.04725321 152.99067712 249.96927322 141 230 C135.91916668 231.6270645 132.04754607 234.677543 127.8125 237.8125 C126.19146848 238.99748097 124.57037298 240.18237442 122.94921875 241.3671875 C122.12470215 241.97272461 121.30018555 242.57826172 120.45068359 243.20214844 C116.68699258 245.96323836 112.90776918 248.70262889 109.125 251.4375 C108.38870361 251.97028564 107.65240723 252.50307129 106.89379883 253.05200195 C100.46555939 257.69080167 93.97114244 262.23195558 87.46801758 266.76489258 C81.12895924 271.19062071 74.85082238 275.69478368 68.59350586 280.23510742 C62.7426904 284.47651094 56.84930546 288.65443715 50.93457031 292.80615234 C45.89581437 296.34809435 40.92875447 299.97259969 36.00390625 303.671875 C34 305 34 305 32 305 C32 305.66 32 306.32 32 307 C-0.01 307 -32.02 307 -65 307 C-65 306.01 -65 305.02 -65 304 C-63.56982422 302.62475586 -63.56982422 302.62475586 -61.5546875 301.21484375 C-60.81476563 300.68955078 -60.07484375 300.16425781 -59.3125 299.62304688 C-58.508125 299.06681641 -57.70375 298.51058594 -56.875 297.9375 C-56.05257813 297.35677734 -55.23015625 296.77605469 -54.3828125 296.17773438 C-52.70819088 294.99587797 -51.03078082 293.8179626 -49.35058594 292.64404297 C-46.21706763 290.45240272 -43.10818293 288.22733073 -40 286 C-38.87504755 285.19784997 -37.75004649 284.39576812 -36.625 283.59375 C-32.40461432 280.5791888 -28.20267281 277.53918118 -24 274.5 C-18.67763735 270.65111023 -13.34894622 266.81186579 -8 263 C0.36186803 257.03955746 8.6792133 251.01758736 17 245 C25.87867815 238.57894591 34.75923342 232.16146398 43.68164062 225.80126953 C51.48061546 220.23725805 59.23708119 214.61413768 67 209 C76.02888263 202.47031813 85.06018341 195.94503224 94.13427734 189.47827148 C99.44888648 185.68762377 104.72734665 181.8487274 110 178 C105.94938798 170.47926312 101.75770971 163.05633136 97.4375 155.6875 C96.82817627 154.64553467 96.21885254 153.60356934 95.59106445 152.5300293 C91.11670323 144.88606368 86.61623943 137.25765239 82.1027832 129.63671875 C79.03291698 124.45054367 75.97576576 119.25715495 72.93359375 114.0546875 C72.58304428 113.4552684 72.23249481 112.8558493 71.87132263 112.23826599 C71.51715775 111.63265335 71.16299286 111.02704071 70.7980957 110.40307617 C64.15754714 99.04816651 57.46019977 87.73190543 50.67114258 76.46484375 C46.19751376 69.02791632 41.78971795 61.554583 37.40914917 54.06265259 C35.26919368 50.40355797 33.12522531 46.7468123 30.98161316 43.08985901 C29.38922583 40.37287117 27.798672 37.65485057 26.21191406 34.93457031 C15.8072964 17.04844606 15.8072964 17.04844606 1.46875 2.27734375 C0.9840625 1.85582031 0.499375 1.43429687 0 1 C0 0.67 0 0.34 0 0 Z " fill="#EFFFFF" transform="translate(1253,1041)"/>
<path d="M0 0 C-1.29374849 5.07869678 -2.58990224 10.15677265 -3.88793945 15.234375 C-4.32571594 16.94808852 -4.76292421 18.66194732 -5.19946289 20.37597656 C-8.99844575 35.28952137 -12.99840201 50.13692174 -17 65 C23.26 65 63.52 65 105 65 C100.81484974 82.7868886 95.89055643 100.39399686 91 118 C49.75 118 8.5 118 -34 118 C-35.32 123.61 -36.64 129.22 -38 135 C-38.71508214 137.85752563 -39.44076497 140.71247775 -40.18798828 143.56176758 C-40.37458323 144.27565895 -40.56117817 144.98955032 -40.75342751 145.72507477 C-41.35699673 148.03210557 -41.96356777 150.33833377 -42.5703125 152.64453125 C-43.009292 154.3189845 -43.44810981 155.99348016 -43.88677979 157.66801453 C-44.81623937 161.21438853 -45.74707857 164.76039664 -46.67889404 168.30615234 C-47.89593138 172.93813145 -49.10924109 177.57107756 -50.32138252 182.20433998 C-55.08854031 200.4241441 -59.8816279 218.63595396 -64.80034256 236.81549644 C-65.44547468 239.20216634 -66.08866881 241.5893488 -66.73104858 243.97676086 C-67.0412667 245.12965811 -67.0412667 245.12965811 -67.35775185 246.30584621 C-67.76695945 247.82693546 -68.17606815 249.34805133 -68.58507347 250.86919498 C-69.75924157 255.23104061 -70.94695342 259.5889053 -72.14502716 263.94424152 C-72.70412337 265.98568483 -73.25633853 268.02884361 -73.80560303 270.07295227 C-74.46452653 272.52443772 -75.13412154 274.97309559 -75.81744385 277.41789246 C-78.49735334 287.50754614 -79.8678394 297.43217772 -75 307 C-72.666508 309.83411155 -72.666508 309.83411155 -70 312 C-69.360625 312.556875 -68.72125 313.11375 -68.0625 313.6875 C-61.09311825 318.12256112 -52.63405587 318.14915762 -44.62475586 318.16113281 C-43.81716827 318.16609772 -43.00958069 318.17106262 -42.17752075 318.17617798 C-39.52328617 318.19070153 -36.86911143 318.19758659 -34.21484375 318.203125 C-33.30096956 318.20595238 -32.38709538 318.20877975 -31.44552803 318.21169281 C-26.6053654 318.22664881 -21.76523227 318.23589984 -16.92504883 318.24023438 C-11.96158669 318.24570119 -6.99840133 318.26970168 -2.0350256 318.29820633 C1.81292979 318.31696847 5.66082044 318.32204556 9.50881767 318.32357025 C11.33658797 318.32656882 13.1643579 318.33450091 14.9920826 318.34775543 C28.77483143 318.44054115 41.2242935 317.50775401 54.01171875 311.76953125 C56 311 56 311 59 311 C57.66234879 318.33929624 55.84612397 325.46043015 53.77734375 332.625 C53.31902916 334.22807007 53.31902916 334.22807007 52.85145569 335.86352539 C52.21038994 338.10275367 51.56741428 340.34143598 50.92260742 342.57958984 C49.93271991 346.01659705 48.94929909 349.45540643 47.96679688 352.89453125 C47.34152163 355.0756286 46.71588366 357.25662201 46.08984375 359.4375 C45.79504623 360.46762207 45.50024872 361.49774414 45.19651794 362.55908203 C44.78587852 363.98196533 44.78587852 363.98196533 44.36694336 365.43359375 C44.12648788 366.26947021 43.88603241 367.10534668 43.63829041 367.96655273 C43 370 43 370 42 372 C-22.68 372 -87.36 372 -154 372 C-154 371.34 -154 370.68 -154 370 C-155.01320313 370.0309375 -156.02640625 370.061875 -157.0703125 370.09375 C-172.97129409 369.71440253 -190.24510721 361.37959628 -202 351 C-202.99 350.278125 -203.98 349.55625 -205 348.8125 C-218.64104014 337.14183232 -224.77636849 319.35366201 -226.1640625 301.94140625 C-227.45001064 279.26585411 -220.46748349 257.3166225 -214.66300201 235.66495514 C-213.75933172 232.28818922 -212.86267025 228.90957715 -211.9659214 225.53096771 C-208.9976161 214.34850981 -206.00343644 203.17306686 -203 192 C-202.79995865 191.25551353 -202.5999173 190.51102707 -202.39381409 189.74398041 C-197.0677052 169.92385087 -191.67673513 150.1215655 -186.27114296 130.32299042 C-183.2458957 119.24052354 -180.2284119 108.15594118 -177.2096138 97.07171631 C-174.44402004 86.9179999 -171.67711344 76.76464115 -168.91017914 66.61128998 C-167.87671447 62.81879156 -166.8434139 59.02624846 -165.81011963 55.23370361 C-164.17812994 49.2441835 -162.5452007 43.25492026 -160.91156769 37.26584816 C-160.30185015 35.03004726 -159.69242623 32.79416627 -159.08330536 30.55820274 C-158.24496804 27.48104942 -157.40558153 24.40418423 -156.56591797 21.32739258 C-156.31879625 20.41940477 -156.07167454 19.51141697 -155.81706429 18.57591438 C-155.47761945 17.33338307 -155.47761945 17.33338307 -155.13131714 16.06575012 C-154.83787068 14.9895074 -154.83787068 14.9895074 -154.53849602 13.89152241 C-154.07048585 12.24758878 -153.54051376 10.62154129 -153 9 C-134.52806534 7.82270551 -116.05590377 6.6490351 -97.58346748 5.47963715 C-89.00573072 4.93653921 -80.42807123 4.39227132 -71.85058594 3.84521484 C-64.37140536 3.36820927 -56.89208707 2.89343381 -49.41259754 2.4212966 C-45.45506573 2.17140321 -41.49761005 1.92042024 -37.54031754 1.66676331 C-33.80920909 1.42763991 -30.07792235 1.19151775 -26.34648323 0.95761299 C-24.33724392 0.83090394 -22.32820128 0.70108804 -20.31916809 0.57115173 C-13.53488675 0.1489921 -6.79761885 -0.11709758 0 0 Z " fill="#EFFFFF" transform="translate(1891,976)"/>
<path d="M0 0 C46.86 0 93.72 0 142 0 C142.33 11.22 142.66 22.44 143 34 C144.98 30.7 146.96 27.4 149 24 C159.21968532 10.72494484 172.00060378 2.87638436 188.63175201 0.27151108 C197.9625158 -0.79822729 207.49315276 -0.35525983 216.8671875 -0.29296875 C219.35824323 -0.28736408 221.84930231 -0.2830981 224.34036255 -0.28010559 C230.85375313 -0.26872544 237.36693869 -0.23931775 243.88024902 -0.20599365 C250.5438395 -0.17514464 257.20745055 -0.16156874 263.87109375 -0.14648438 C276.91414928 -0.11444094 289.95706366 -0.06391607 303 0 C295.55236108 26.77386997 295.55236108 26.77386997 291.66796875 39.62109375 C291.12394157 41.42538597 291.12394157 41.42538597 290.56892395 43.26612854 C289.82021386 45.74514273 289.07012283 48.22374029 288.31860352 50.7019043 C287.35772522 53.8753122 286.40301521 57.0504469 285.45115185 60.22656155 C284.52903106 63.29726968 283.59793912 66.36525543 282.66796875 69.43359375 C282.15861031 71.13786781 282.15861031 71.13786781 281.63896179 72.87657166 C281.32135391 73.91689041 281.00374603 74.95720917 280.67651367 76.02905273 C280.40006516 76.94404037 280.12361664 77.85902802 279.83879089 78.80174255 C279 81 279 81 277 83 C276.03513672 82.31164063 276.03513672 82.31164063 275.05078125 81.609375 C274.14714844 80.99578125 273.24351562 80.3821875 272.3125 79.75 C271.44238281 79.14671875 270.57226562 78.5434375 269.67578125 77.921875 C257.78599543 71.16988928 245.41085276 71.41944833 232.17578125 71.50390625 C230.17807462 71.50375093 228.18036769 71.50225649 226.18266296 71.49949646 C222.01804099 71.49811981 217.8537665 71.51055011 213.68920898 71.53344727 C208.37347417 71.5618851 203.05831326 71.55906948 197.74253559 71.54635715 C193.62535264 71.53937719 189.5083005 71.54721478 185.39113426 71.55961418 C183.43168834 71.56410224 181.47222825 71.56448884 179.51278114 71.56054878 C162.59575627 71.33728471 162.59575627 71.33728471 147.1875 77.6875 C146.50042969 78.12449219 145.81335937 78.56148437 145.10546875 79.01171875 C139.00785344 84.76994917 136.86271761 91.88611975 134.99609375 99.84375 C134.72395554 100.94901031 134.45181732 102.05427063 134.1714325 103.19302368 C133.40903657 106.29900671 132.65926673 109.4077404 131.91422272 112.51792145 C131.10083801 115.89974556 130.27158133 119.27766622 129.44287109 122.65576172 C129.08451843 124.11703117 128.72618141 125.57830446 128.36785889 127.0395813 C128.09147205 128.16653601 128.09147205 128.16653601 127.80950165 129.31625748 C127.2250188 131.70258546 126.64254044 134.08939626 126.06036377 136.47628784 C122.68614915 150.29387124 119.22417159 164.08881153 115.74669838 177.88072968 C114.79242568 181.66621678 113.83927223 185.45198386 112.88652039 189.237854 C112.57047631 190.49366901 112.25443224 191.74948402 111.92881107 193.04335403 C111.2883685 195.58830957 110.64794381 198.1332696 110.00753689 200.6782341 C108.40979991 207.02618179 106.81001066 213.37359904 105.20602417 219.7199707 C103.67137624 225.79341483 102.14386374 231.86861419 100.62122536 237.9450798 C100.05328526 240.20636907 99.48284771 242.4670328 98.90970421 244.72700882 C92.29953675 270.59196123 92.29953675 270.59196123 93.46484375 297.0078125 C94.0581239 300.32498472 94.52343704 303.66405926 95 307 C37.25 307 -20.5 307 -80 307 C-79.07866211 303.31464846 -78.12243556 301.64248906 -75.85818481 298.73220825 C-62.67182786 281.73936496 -56.7282609 261.89583345 -51.375 241.375 C-50.66502917 238.70647339 -49.94895434 236.03959215 -49.23339844 233.37255859 C-47.44775463 226.7006665 -45.68577119 220.02272635 -43.93125916 213.34258842 C-42.36926026 207.39752153 -40.79780585 201.45500826 -39.22167969 195.51367188 C-38.9845759 194.61974637 -38.74747211 193.72582087 -38.50318336 192.80480671 C-38.01675622 190.97089136 -37.53032442 189.13697726 -37.04388809 187.30306435 C-33.7472654 174.87188409 -30.45915132 162.43855634 -27.20068359 149.99731445 C-26.18068834 146.10367203 -25.16068121 142.21003271 -24.140625 138.31640625 C-23.88802036 137.35194895 -23.63541573 136.38749165 -23.3751564 135.39380836 C-19.83292233 121.87745297 -16.22192774 108.38130566 -12.55821991 94.8973999 C-11.06946803 89.40743805 -9.59399025 83.91389332 -8.1191597 78.42017746 C-6.96017862 74.10789967 -5.79232079 69.79847925 -4.60217285 65.49468994 C1.90484208 41.9392096 4.90796122 24.53980612 0 0 Z " fill="#EFFFFF" transform="translate(2452,1041)"/>
</svg>
