<?xml version="1.0" encoding="UTF-8"?>
<svg version="1.1" xmlns="http://www.w3.org/2000/svg" width="3000" height="2400">
<path d="M0 0 C1.6750346 -0.00646338 3.35006818 -0.013194 5.02510071 -0.02017212 C8.51684165 -0.03204054 12.00848451 -0.03586439 15.50024414 -0.03466797 C19.01087272 -0.03450644 22.52097377 -0.04824995 26.03149414 -0.07568359 C48.10604346 -0.24557001 69.31125206 0.61026126 91.11328125 4.3359375 C92.14879623 4.51012207 93.18431122 4.68430664 94.25120544 4.86376953 C105.60422842 6.79215506 116.64159852 9.35913413 127.68017578 12.63085938 C130.28339381 13.38523361 132.89721017 14.08934156 135.515625 14.7890625 C173.90232571 25.23685878 211.25779514 42.95231947 244.11328125 65.3359375 C246.17537143 66.69072815 248.23787042 68.04489677 250.30078125 69.3984375 C254.69881381 72.32854785 258.90864932 75.40563898 263.04296875 78.6953125 C264.99652434 80.24341316 266.9817781 81.73246149 268.98828125 83.2109375 C274.17035099 87.07938876 279.13682274 91.20857799 284.11328125 95.3359375 C284.85835937 95.94308594 285.6034375 96.55023437 286.37109375 97.17578125 C287.99078763 98.51678286 289.55891224 99.91973463 291.11328125 101.3359375 C291.11328125 101.9959375 291.11328125 102.6559375 291.11328125 103.3359375 C291.65082031 103.54476562 292.18835937 103.75359375 292.7421875 103.96875 C296.02768609 105.86318906 298.44609707 108.49894423 301.05078125 111.2109375 C304.58328621 114.86341433 308.12844999 118.16799665 312.11328125 121.3359375 C313.33655501 122.61516141 314.52675335 123.9271287 315.67578125 125.2734375 C316.27261719 125.96953125 316.86945312 126.665625 317.484375 127.3828125 C318.75869837 128.91077818 320.00424946 130.46275024 321.23828125 132.0234375 C323.09810629 134.40312646 323.09810629 134.40312646 325.3984375 136.59765625 C328.21728302 139.44083713 330.8464755 142.40287431 333.42578125 145.4609375 C334.14254028 146.30918091 334.14254028 146.30918091 334.8737793 147.17456055 C338.5633181 151.58557621 342.00178767 156.13964163 345.328125 160.83203125 C346.99565419 163.17095075 348.72794315 165.44158597 350.48828125 167.7109375 C352.58910674 170.47607808 353.92079156 173.05659084 355.11328125 176.3359375 C355.77328125 176.6659375 356.43328125 176.9959375 357.11328125 177.3359375 C360.70139563 181.96733513 363.64619557 186.61430335 365.11328125 192.3359375 C365.77328125 192.3359375 366.43328125 192.3359375 367.11328125 192.3359375 C367.65855469 193.46128906 367.65855469 193.46128906 368.21484375 194.609375 C371.11683551 200.51753258 374.17360425 206.2248822 377.60546875 211.83984375 C381.68977669 218.60117218 385.29942272 225.38773462 388.1015625 232.77734375 C389.61162873 236.59623711 391.39056602 240.28386796 393.16015625 243.98828125 C394.11328125 246.3359375 394.11328125 246.3359375 394.11328125 249.3359375 C394.77328125 249.3359375 395.43328125 249.3359375 396.11328125 249.3359375 C396.355625 250.14675781 396.59796875 250.95757813 396.84765625 251.79296875 C399.04989566 259.06882896 401.46689164 266.21177996 404.11328125 273.3359375 C405.01424711 275.79239443 405.90990999 278.25080162 406.80078125 280.7109375 C407.21714844 281.85304688 407.63351562 282.99515625 408.0625 284.171875 C408.97583136 286.92205493 409.55960625 289.50074415 410.11328125 292.3359375 C410.53907303 294.14799674 410.97458497 295.95778979 411.41796875 297.765625 C415.39111112 314.06273721 418.91063139 329.49883944 420.11328125 346.3359375 C386.78328125 346.3359375 353.45328125 346.3359375 319.11328125 346.3359375 C319.11328125 381.9759375 319.11328125 417.6159375 319.11328125 454.3359375 C352.44328125 454.3359375 385.77328125 454.3359375 420.11328125 454.3359375 C419.45331255 463.57549925 418.64753484 471.91418363 416.67578125 480.8359375 C416.45857422 481.8671875 416.24136719 482.8984375 416.01757812 483.9609375 C414.96473662 488.86787449 413.79010499 493.59836127 412.11328125 498.3359375 C411.79608074 499.64250152 411.50248113 500.955134 411.23828125 502.2734375 C410.31477441 506.57580669 409.23681047 510.8321339 408.11328125 515.0859375 C407.78328125 516.33890625 407.45328125 517.591875 407.11328125 518.8828125 C406.26408167 521.81520481 405.29826965 524.52891175 404.11328125 527.3359375 C400.57151946 536.18401727 400.57151946 536.18401727 397.73828125 545.2734375 C396.36199647 550.09432205 394.1869937 554.36189496 391.87597656 558.79907227 C389.62125108 563.17544001 387.74607932 567.61454865 385.98828125 572.2109375 C383.88213141 577.69967041 381.39677885 582.45759821 378.11328125 587.3359375 C377.78328125 588.3259375 377.45328125 589.3159375 377.11328125 590.3359375 C376.45328125 590.3359375 375.79328125 590.3359375 375.11328125 590.3359375 C374.98953125 591.3259375 374.98953125 591.3259375 374.86328125 592.3359375 C373.86568334 596.32632913 372.04161442 599.72143393 370.11328125 603.3359375 C369.45328125 603.3359375 368.79328125 603.3359375 368.11328125 603.3359375 C367.86578125 604.1815625 367.61828125 605.0271875 367.36328125 605.8984375 C365.97354498 609.72021224 364.20207287 612.85461813 362.11328125 616.3359375 C361.45328125 616.3359375 360.79328125 616.3359375 360.11328125 616.3359375 C359.03802931 618.98822562 358.01871974 621.61962204 357.11328125 624.3359375 C356.13389335 625.35613323 355.13432676 626.35743555 354.11328125 627.3359375 C353.78328125 627.9959375 353.45328125 628.6559375 353.11328125 629.3359375 C352.45328125 629.3359375 351.79328125 629.3359375 351.11328125 629.3359375 C351.11328125 630.3259375 351.11328125 631.3159375 351.11328125 632.3359375 C350.45328125 632.3359375 349.79328125 632.3359375 349.11328125 632.3359375 C348.85289062 633.06941406 348.5925 633.80289063 348.32421875 634.55859375 C347.08842059 637.39295663 345.68729779 639.38610502 343.73828125 641.7734375 C341.68023306 644.33749341 339.79113871 646.82862608 337.98828125 649.5859375 C336.11328125 652.3359375 336.11328125 652.3359375 333.77734375 654.6640625 C331.18158784 657.26743059 328.90454031 659.96379586 326.61328125 662.8359375 C323.62641857 666.58003297 320.53763083 669.98832405 317.11328125 673.3359375 C315.6717937 674.77465695 314.23184311 676.21491708 312.79296875 677.65625 C308.23307292 682.21614583 303.67317708 686.77604167 299.11328125 691.3359375 C298.30721436 692.20387939 298.30721436 692.20387939 297.48486328 693.08935547 C296.11328125 694.3359375 296.11328125 694.3359375 294.11328125 694.3359375 C294.11328125 694.9959375 294.11328125 695.6559375 294.11328125 696.3359375 C292.85546875 697.640625 292.85546875 697.640625 290.98828125 699.2109375 C290.25996094 699.82839844 289.53164062 700.44585938 288.78125 701.08203125 C287.90082031 701.82582031 287.02039062 702.56960938 286.11328125 703.3359375 C285.02464813 704.28355772 283.93750086 705.23288663 282.8515625 706.18359375 C275.84958665 712.29188737 268.7149592 717.97995466 261.11328125 723.3359375 C259.27896787 724.68877633 257.44564294 726.04295636 255.61328125 727.3984375 C250.25562949 731.29010274 244.73021395 734.83344554 239.11328125 738.3359375 C237.91843618 739.10417216 236.72447458 739.87378206 235.53125 740.64453125 C220.67820092 750.17731009 205.05998303 758.09123778 189.03417969 765.44970703 C187.22456085 766.28459727 185.42254731 767.13591564 183.62109375 767.98828125 C170.90844216 773.97877535 157.77902957 778.58421726 144.42578125 782.8984375 C143.67627197 783.14127472 142.9267627 783.38411194 142.15454102 783.63430786 C132.5223477 786.7435587 122.95066375 789.6622543 113 791.58203125 C110.34077197 792.09784131 107.75444892 792.65207027 105.1328125 793.30859375 C79.20073624 799.75062195 53.05253499 801.00483337 26.46972656 800.85742188 C22.31425068 800.83459575 18.15979783 800.84823856 14.00435638 800.87117577 C-12.27711999 800.99425507 -37.47305372 798.72752287 -63.13671875 792.7109375 C-64.46979637 792.40772769 -65.80313253 792.10565248 -67.13671875 791.8046875 C-69.6445269 791.2356467 -72.1509963 790.66065716 -74.65576172 790.07836914 C-77.29809131 789.47119638 -79.94317454 788.90555767 -82.59765625 788.35546875 C-87.94005038 787.17158625 -93.08502603 785.40527157 -98.26171875 783.6484375 C-99.3175415 783.29177002 -100.37336426 782.93510254 -101.46118164 782.56762695 C-104.60608172 781.49906839 -107.74716473 780.42009269 -110.88671875 779.3359375 C-111.73121582 779.04557617 -112.57571289 778.75521484 -113.44580078 778.45605469 C-141.1512348 768.84690104 -167.12220021 755.96380543 -191.88671875 740.3359375 C-192.53543945 739.92956055 -193.18416016 739.52318359 -193.85253906 739.10449219 C-204.09852735 732.67886204 -213.90795453 725.7609009 -223.40625 718.26953125 C-225.36863668 716.73979675 -227.34439687 715.23717652 -229.3359375 713.74609375 C-229.93293457 713.2960498 -230.52993164 712.84600586 -231.14501953 712.38232422 C-232.33367421 711.48705332 -233.52598885 710.5966181 -234.72216797 709.71142578 C-236.14714377 708.633238 -237.5221368 707.48961034 -238.88671875 706.3359375 C-238.88671875 705.6759375 -238.88671875 705.0159375 -238.88671875 704.3359375 C-239.74136719 703.95888672 -239.74136719 703.95888672 -240.61328125 703.57421875 C-243.20357075 702.1633566 -245.08998958 700.52098361 -247.26171875 698.5234375 C-248.56689453 697.32460937 -248.56689453 697.32460937 -249.8984375 696.1015625 C-250.6107251 695.44124023 -250.6107251 695.44124023 -251.33740234 694.76757812 C-253.01899628 693.21370689 -254.71220912 691.67310001 -256.40625 690.1328125 C-267.288979 680.19394173 -267.288979 680.19394173 -271.984375 674.5546875 C-274.13375229 672.04781625 -276.38231337 669.65269218 -278.64550781 667.2487793 C-293.88671875 651.0523214 -293.88671875 651.0523214 -293.88671875 647.3359375 C-294.54671875 647.3359375 -295.20671875 647.3359375 -295.88671875 647.3359375 C-297.53595691 645.24348542 -299.06607522 643.15204577 -300.57421875 640.9609375 C-301.01685059 640.32768555 -301.45948242 639.69443359 -301.91552734 639.04199219 C-302.81483218 637.75466902 -303.71164966 636.46560461 -304.60595703 635.17480469 C-305.75650202 633.52289755 -306.92775712 631.88546076 -308.1015625 630.25 C-309.04708984 628.93128906 -309.04708984 628.93128906 -310.01171875 627.5859375 C-310.85089844 626.41804688 -310.85089844 626.41804688 -311.70703125 625.2265625 C-312.88671875 623.3359375 -312.88671875 623.3359375 -312.88671875 621.3359375 C-313.54671875 621.3359375 -314.20671875 621.3359375 -314.88671875 621.3359375 C-316.47265625 618.95703125 -316.47265625 618.95703125 -318.26171875 615.7734375 C-318.87917969 614.68160156 -319.49664063 613.58976562 -320.1328125 612.46484375 C-320.71160156 611.43230469 -321.29039062 610.39976562 -321.88671875 609.3359375 C-322.69803003 607.96023577 -323.51024485 606.58506549 -324.32421875 605.2109375 C-325.88671875 602.3359375 -325.88671875 602.3359375 -325.88671875 600.3359375 C-326.54671875 600.3359375 -327.20671875 600.3359375 -327.88671875 600.3359375 C-329.37171875 595.8809375 -329.37171875 595.8809375 -330.88671875 591.3359375 C-331.54671875 591.3359375 -332.20671875 591.3359375 -332.88671875 591.3359375 C-333.62921875 589.6034375 -333.62921875 589.6034375 -334.38671875 587.8359375 C-336.02024614 584.1432453 -337.78595725 580.53800242 -339.62426758 576.94311523 C-344.2209431 567.94374014 -348.20273727 558.75255993 -352.02978516 549.40283203 C-352.80507091 547.5328693 -353.61538724 545.6775249 -354.4296875 543.82421875 C-356.11120604 539.79849205 -357.52269919 535.72784553 -358.88671875 531.5859375 C-359.27972168 530.40004028 -359.27972168 530.40004028 -359.68066406 529.19018555 C-361.35283434 524.09506398 -362.90263232 518.9859639 -364.24609375 513.79296875 C-365.25055952 509.94047503 -366.36419712 506.1196519 -367.48339844 502.29907227 C-369.97693137 493.77232485 -372.25476418 485.41666108 -373.42578125 476.58984375 C-373.85176254 473.58270463 -374.3972263 470.6187541 -374.99086285 467.64072895 C-378.06977231 452.1449767 -379.20305176 436.8120971 -379.1875 421.03515625 C-379.19140694 419.33999023 -379.19574553 417.64482515 -379.20048523 415.94966125 C-379.20786935 412.42612511 -379.20771382 408.9026893 -379.20239258 405.37915039 C-379.19775839 401.813918 -379.20470066 398.24902646 -379.22290039 394.68383789 C-379.41031632 357.69037227 -379.41031632 357.69037227 -375.88671875 339.3359375 C-375.54301354 337.04580345 -375.20738943 334.75441031 -374.88671875 332.4609375 C-372.40687748 316.64686773 -369.24727681 300.56082702 -363.953125 285.42578125 C-362.68519108 281.75202401 -361.5339252 278.04877023 -360.38671875 274.3359375 C-359.75240301 272.30271399 -359.11660513 270.26995921 -358.48046875 268.23730469 C-357.93561797 266.49252759 -357.39531816 264.74633104 -356.85546875 263 C-355.06752061 257.39103366 -352.95905145 252.2777555 -350.22265625 247.0703125 C-348.65844823 243.86871713 -347.4078078 240.60214584 -346.13671875 237.2734375 C-343.56607211 230.59027279 -340.39511759 224.33527523 -336.95800781 218.05834961 C-335.03432448 214.54405737 -333.26725143 211.1103726 -331.88671875 207.3359375 C-331.22671875 207.3359375 -330.56671875 207.3359375 -329.88671875 207.3359375 C-329.76425781 206.76359375 -329.64179687 206.19125 -329.515625 205.6015625 C-328.85909007 203.23640559 -327.94948363 201.26386953 -326.82421875 199.0859375 C-326.46199219 198.37953125 -326.09976563 197.673125 -325.7265625 196.9453125 C-325.44941406 196.41421875 -325.17226563 195.883125 -324.88671875 195.3359375 C-324.22671875 195.3359375 -323.56671875 195.3359375 -322.88671875 195.3359375 C-322.63921875 194.4903125 -322.39171875 193.6446875 -322.13671875 192.7734375 C-320.74698248 188.95166276 -318.97551037 185.81725687 -316.88671875 182.3359375 C-316.22671875 182.3359375 -315.56671875 182.3359375 -314.88671875 182.3359375 C-314.61859375 181.6346875 -314.35046875 180.9334375 -314.07421875 180.2109375 C-312.81857385 177.1709551 -311.38436752 174.2631601 -309.88671875 171.3359375 C-309.22671875 171.3359375 -308.56671875 171.3359375 -307.88671875 171.3359375 C-307.22671875 169.6859375 -306.56671875 168.0359375 -305.88671875 166.3359375 C-305.22671875 166.3359375 -304.56671875 166.3359375 -303.88671875 166.3359375 C-303.88671875 165.3459375 -303.88671875 164.3559375 -303.88671875 163.3359375 C-302.92722194 162.29701215 -301.91389203 161.30800491 -300.88671875 160.3359375 C-299.15402038 158.16314482 -297.44767408 155.98169888 -295.76171875 153.7734375 C-295.30667969 153.18369141 -294.85164063 152.59394531 -294.3828125 151.98632812 C-291.91697493 148.80184992 -291.91697493 148.80184992 -289.88671875 145.3359375 C-289.22671875 145.3359375 -288.56671875 145.3359375 -287.88671875 145.3359375 C-287.63921875 144.7584375 -287.39171875 144.1809375 -287.13671875 143.5859375 C-285.72072219 141.03714369 -283.9394866 139.38870535 -281.88671875 137.3359375 C-281.55671875 136.3459375 -281.22671875 135.3559375 -280.88671875 134.3359375 C-279.50390625 133.01171875 -279.50390625 133.01171875 -277.76171875 131.6484375 C-275.19472815 129.52563441 -272.96828834 127.38372503 -270.82421875 124.8359375 C-262.87861365 115.53333018 -254.05166403 106.98684908 -244.45703125 99.40625 C-241.87674547 97.32790431 -239.44616681 95.14501819 -237.01171875 92.8984375 C-226.70780832 83.5488924 -215.25061914 75.60489669 -203.83496094 67.6875 C-202.1425722 66.51343183 -200.45556247 65.3316173 -198.76953125 64.1484375 C-192.20139519 59.63625539 -185.37676686 55.72068379 -178.37915039 51.92333984 C-174.0527692 49.57276734 -169.84872381 47.11191645 -165.71362305 44.4375 C-163.12201296 42.87484536 -160.41077737 41.71925025 -157.62890625 40.5390625 C-154.92018861 39.35062228 -152.27078994 38.06309517 -149.61450195 36.76269531 C-129.4713054 26.99600482 -108.43150215 19.34445797 -86.88671875 13.3359375 C-85.97712402 13.07474121 -85.0675293 12.81354492 -84.13037109 12.54443359 C-56.78559254 4.72128525 -28.45723287 0.02654735 0 0 Z M-51.88671875 292.3359375 C-52.77617188 292.92632813 -53.665625 293.51671875 -54.58203125 294.125 C-58.31305898 296.6242677 -58.31305898 296.6242677 -61.88671875 299.3359375 C-61.88671875 299.9959375 -61.88671875 300.6559375 -61.88671875 301.3359375 C-62.43199219 301.55378906 -62.97726562 301.77164063 -63.5390625 301.99609375 C-66.66369686 303.77937093 -68.9715809 306.20886499 -71.44921875 308.7734375 C-71.93068359 309.26392578 -72.41214844 309.75441406 -72.90820312 310.25976562 C-74.23788566 311.61505415 -75.56249097 312.97531873 -76.88671875 314.3359375 C-77.49386719 314.88378906 -78.10101562 315.43164062 -78.7265625 315.99609375 C-80.21401617 317.41853958 -80.21401617 317.41853958 -79.88671875 320.3359375 C-81.37171875 320.8309375 -81.37171875 320.8309375 -82.88671875 321.3359375 C-85.21672245 324.55311104 -85.21672245 324.55311104 -85.88671875 328.3359375 C-86.87671875 328.8309375 -86.87671875 328.8309375 -87.88671875 329.3359375 C-101.97356098 350.55490891 -108.54155073 374.58023668 -108.38671875 399.8359375 C-108.38595337 400.56496277 -108.38518799 401.29398804 -108.38439941 402.04510498 C-108.32638233 417.48479721 -107.21394308 433.74593325 -99.81445312 447.59375 C-98.61856026 449.83951092 -97.68198784 452.1531646 -96.76171875 454.5234375 C-96.44976563 455.32136719 -96.1378125 456.11929688 -95.81640625 456.94140625 C-95.35621094 458.12669922 -95.35621094 458.12669922 -94.88671875 459.3359375 C-94.22165611 461.00324488 -93.55542552 462.67008833 -92.88671875 464.3359375 C-92.22671875 464.3359375 -91.56671875 464.3359375 -90.88671875 464.3359375 C-89.81146681 466.98822562 -88.79215724 469.61962204 -87.88671875 472.3359375 C-87.22671875 472.3359375 -86.56671875 472.3359375 -85.88671875 472.3359375 C-85.45359375 473.480625 -85.45359375 473.480625 -85.01171875 474.6484375 C-83.92402862 477.48623058 -83.92402862 477.48623058 -81.88671875 480.3359375 C-81.22671875 480.3359375 -80.56671875 480.3359375 -79.88671875 480.3359375 C-79.88671875 481.3259375 -79.88671875 482.3159375 -79.88671875 483.3359375 C-78.81590212 484.51038154 -77.72567671 485.6705871 -76.56640625 486.7578125 C-74.51190213 488.68809079 -72.55038221 490.70058436 -70.57421875 492.7109375 C-58.55364795 504.65281389 -45.42208794 513.96906738 -29.76513672 520.54345703 C-27.92062655 521.32163223 -26.09282204 522.13903042 -24.265625 522.95703125 C0.8336856 533.70443039 32.19853845 534.73218791 58.11328125 526.3359375 C58.85271973 526.09713867 59.5921582 525.85833984 60.35400391 525.61230469 C70.40925101 522.32935989 80.12993158 519.02408467 89.11328125 513.3359375 C89.93675049 512.83634521 89.93675049 512.83634521 90.77685547 512.32666016 C107.72152883 502.01470795 122.05887876 488.3868341 132.55078125 471.5234375 C133.09154297 470.67845703 133.63230469 469.83347656 134.18945312 468.96289062 C137.22467347 464.49344197 137.22467347 464.49344197 138.11328125 459.3359375 C138.77328125 459.3359375 139.43328125 459.3359375 140.11328125 459.3359375 C142.6078172 453.7460475 144.66663161 448.07513348 146.61328125 442.2734375 C147.05607422 440.99436523 147.05607422 440.99436523 147.5078125 439.68945312 C151.84717623 426.77650071 153.69647242 414.33607319 153.61328125 400.7734375 C153.61218353 400.03258911 153.61108582 399.29174072 153.60995483 398.52844238 C153.55648707 385.90461737 152.0803652 374.37619019 148.11328125 362.3359375 C147.91041504 361.67803223 147.70754883 361.02012695 147.49853516 360.34228516 C141.75674378 341.74502103 131.55637891 324.42870159 118.11328125 310.3359375 C117.45328125 310.3359375 116.79328125 310.3359375 116.11328125 310.3359375 C115.87480469 309.76359375 115.63632813 309.19125 115.390625 308.6015625 C108.4100147 296.22005187 91.4135124 288.08774702 79.11328125 282.3359375 C77.39818359 281.51222656 77.39818359 281.51222656 75.6484375 280.671875 C66.47640373 276.32666413 57.80281679 273.13232271 47.73828125 271.7109375 C46.87468994 271.58759033 46.01109863 271.46424316 45.12133789 271.3371582 C10.65864843 266.65665285 -22.79172595 272.41612915 -51.88671875 292.3359375 Z " fill="#EFFFFF" transform="translate(1328.88671875,797.6640625)"/>
<path d="M0 0 C88.44 0 176.88 0 268 0 C268 245.52 268 491.04 268 744 C179.56 744 91.12 744 0 744 C0 641.04 0 538.08 0 432 C36.3 432 72.6 432 110 432 C110 396.36 110 360.72 110 324 C73.7 324 37.4 324 0 324 C0 217.08 0 110.16 0 0 Z " fill="#EFFFFF" transform="translate(1791,820)"/>
</svg>
