<?xml version="1.0" encoding="UTF-8"?>
<svg version="1.1" xmlns="http://www.w3.org/2000/svg" width="500" height="499">
<path d="M0 0 C3.8743468 2.82367648 7.31920464 6.05528458 10.57421875 9.57421875 C11.81171875 10.90453125 11.81171875 10.90453125 13.07421875 12.26171875 C19.58752908 20.32955772 22.03381706 29.98167788 24.38671875 39.88671875 C24.69802734 41.13517578 25.00933594 42.38363281 25.33007812 43.66992188 C27.87696393 54.10935491 27.87696393 54.10935491 27.57421875 58.57421875 C26.57421875 59.57421875 26.57421875 59.57421875 23.72607422 59.65600586 C22.47713379 59.63803955 21.22819336 59.62007324 19.94140625 59.6015625 C18.56380473 59.58890144 17.18620041 59.5765416 15.80859375 59.56445312 C13.6363047 59.53976802 11.4641611 59.51195043 9.29199219 59.47827148 C7.1959549 59.44778629 5.10009667 59.43019665 3.00390625 59.4140625 C1.74819824 59.39722412 0.49249023 59.38038574 -0.80126953 59.36303711 C-5.41292368 59.63173446 -9.80254256 60.13611523 -13.34375 63.2734375 C-16.09182358 69.11681417 -15.15393575 77.64854435 -13.61328125 83.82421875 C-12.60294554 86.84897711 -12.60294554 86.84897711 -9.42578125 88.57421875 C-7.89803606 88.98429772 -6.35370895 89.33574416 -4.80078125 89.63671875 C-0.52638487 90.47361513 -0.52638487 90.47361513 0.57421875 91.57421875 C0.68355986 94.50509487 0.72845494 97.41326955 0.73193359 100.3449707 C0.73701431 101.26528076 0.74209503 102.18559082 0.74732971 103.13378906 C0.75805885 105.13961639 0.76666897 107.14545587 0.77344894 109.15130043 C0.78519888 112.32400987 0.80464177 115.49658077 0.8265686 118.66923523 C0.88831426 127.69244795 0.94224719 136.71564785 0.97558594 145.73901367 C0.99650584 151.2515925 1.03179047 156.7639214 1.07634354 162.27635765 C1.09052846 164.38029225 1.09923157 166.48427108 1.10239792 168.58825111 C1.1072945 171.53086185 1.13042108 174.47280716 1.15771484 177.4152832 C1.15470871 178.28765121 1.15170258 179.16001923 1.14860535 180.05882263 C1.20719724 184.78883081 1.20719724 184.78883081 2.99478149 189.09977722 C6.27105491 192.15825489 10.13710798 191.79535779 14.4765625 191.73046875 C17.72308526 191.4886421 20.5399602 190.727237 23.57421875 189.57421875 C26.10586607 185.77674777 25.90709437 182.67274679 25.953125 178.26660156 C25.96971161 177.41909332 25.98629822 176.57158508 26.00338745 175.69839478 C26.03818955 173.85692057 26.068523 172.01535778 26.09494019 170.1737442 C26.1370249 167.25611941 26.19107225 164.33893451 26.24829102 161.42156982 C26.36769835 155.22262278 26.47191616 149.02346846 26.57421875 142.82421875 C26.69284141 135.65379856 26.81771099 128.48359256 26.95797729 121.31356049 C27.01093335 118.44488926 27.05268637 115.57619556 27.09399414 112.70733643 C27.12722384 110.93801869 27.16096958 109.16871054 27.1953125 107.39941406 C27.20368134 106.60642914 27.21205017 105.81344421 27.22067261 104.99642944 C27.32805709 100.19756781 27.83473881 96.07444346 29.57421875 91.57421875 C31.05921875 91.07921875 31.05921875 91.07921875 32.57421875 90.57421875 C42.20878079 99.12788172 43.63770311 119.46852347 46.6328125 131.55078125 C47.22336894 133.92117903 47.81428357 136.29148759 48.40553284 138.66171265 C49.96369119 144.91141453 51.51783541 151.16210706 53.07086182 157.41308594 C55.51353415 167.24272267 57.96158202 177.07102161 60.41063309 186.89907074 C61.01665255 189.33180429 61.6223024 191.76462994 62.22758102 194.19754791 C65.55757922 207.58150012 68.91592001 220.9572909 72.34814453 234.31542969 C72.65136281 235.49704618 72.95458109 236.67866268 73.2669878 237.89608574 C74.70611718 243.50157893 76.1507107 249.10556391 77.60484314 254.70718384 C78.11831512 256.70106933 78.63163462 258.69499409 79.14477539 260.68896484 C79.49416389 262.02213808 79.49416389 262.02213808 79.85061073 263.38224411 C83.90542399 279.20855479 84.10824314 293.92389395 76.3984375 308.578125 C69.30407219 320.22989843 59.96153195 326.37552122 47.26171875 330.51171875 C46.23872681 330.84780151 46.23872681 330.84780151 45.19506836 331.19067383 C41.30116951 332.36502427 38.48670646 332.79261434 34.57421875 331.57421875 C34.331875 330.465625 34.08953125 329.35703125 33.83984375 328.21484375 C33.50206281 326.75112632 33.16347877 325.28759406 32.82421875 323.82421875 C32.66695313 323.09460938 32.5096875 322.365 32.34765625 321.61328125 C31.31520123 317.2452023 30.45709619 314.20392671 26.57421875 311.57421875 C23.97307821 310.89431108 21.58903863 310.38847465 18.94921875 310.01171875 C16.42781226 309.64162594 14.06131148 309.17706207 11.57421875 308.57421875 C9.44475427 305.38002203 9.27855846 304.39272879 9.26171875 300.69921875 C9.24496094 299.85617187 9.22820312 299.013125 9.2109375 298.14453125 C9.67962337 294.82845272 10.40045642 293.14439866 12.57421875 290.57421875 C15.77949531 289.47691687 18.8107286 288.81007024 22.125 288.19140625 C25.54778725 287.44878969 27.27562458 286.94043044 29.5234375 284.18359375 C32.08377142 277.82558983 30.38668162 270.95091294 28.57421875 264.57421875 C28.24421875 263.91421875 27.91421875 263.25421875 27.57421875 262.57421875 C24.57408085 261.57417278 22.27586185 261.4107961 19.13671875 261.26171875 C15.8752318 260.95541508 13.81952864 260.69972614 10.88671875 259.19921875 C8.69339649 254.81257424 8.97739596 250.37011615 9.57421875 245.57421875 C10.88671875 242.44921875 10.88671875 242.44921875 12.57421875 240.57421875 C16.04133986 239.41851171 19.11571435 239.24586582 22.76171875 239.01171875 C24.03402344 238.92792969 25.30632812 238.84414062 26.6171875 238.7578125 C27.59300781 238.69722656 28.56882812 238.63664063 29.57421875 238.57421875 C30.57725103 234.39358022 30.74010053 230.43009632 30.76171875 226.13671875 C30.77589844 224.85925781 30.79007812 223.58179688 30.8046875 222.265625 C30.51323647 217.59746873 29.94249461 213.94249461 26.57421875 210.57421875 C20.33533178 209.18035416 14.05821215 209.39027126 7.69921875 209.38671875 C6.55324219 209.37447266 5.40726562 209.36222656 4.2265625 209.34960938 C-1.96077798 209.33892927 -7.59231995 209.3883946 -13.42578125 211.57421875 C-15.44074189 214.56095339 -15.67815802 217.03367419 -15.68647766 220.58398438 C-15.69356247 221.59340088 -15.70064728 222.60281738 -15.70794678 223.64282227 C-15.70423065 225.29495728 -15.70423065 225.29495728 -15.70043945 226.98046875 C-15.70555038 228.14505615 -15.71066132 229.30964355 -15.71592712 230.50952148 C-15.72984334 234.36447264 -15.72886496 238.21924544 -15.7265625 242.07421875 C-15.72946621 244.07342819 -15.73237436 246.0726377 -15.73596925 248.07184601 C-15.74706007 254.35650933 -15.74750394 260.64111288 -15.74145508 266.92578125 C-15.73541175 273.40831063 -15.7477362 279.89062316 -15.76902515 286.37311554 C-15.78663765 291.94095493 -15.79264316 297.50872527 -15.7893874 303.07659149 C-15.78757416 306.4011465 -15.79152616 309.7255121 -15.80410194 313.05004883 C-15.81640153 316.75619352 -15.80971343 320.4618325 -15.7980957 324.16796875 C-15.80573944 325.26939209 -15.81338318 326.37081543 -15.82125854 327.50561523 C-15.81424423 328.51503174 -15.80722992 329.52444824 -15.80000305 330.56445312 C-15.80017079 331.44049194 -15.80033854 332.31653076 -15.80051136 333.21911621 C-15.34269342 336.09640887 -14.3972807 337.45690385 -12.42578125 339.57421875 C-9.9501632 340.68953829 -9.9501632 340.68953829 -7.23828125 341.32421875 C-6.33722656 341.5665625 -5.43617188 341.80890625 -4.5078125 342.05859375 C-3.82074219 342.22875 -3.13367188 342.39890625 -2.42578125 342.57421875 C-2.75578125 343.56421875 -3.08578125 344.55421875 -3.42578125 345.57421875 C-6.04711914 346.57885742 -6.04711914 346.57885742 -9.6484375 347.4921875 C-10.3145253 347.66592896 -10.9806131 347.83967041 -11.66688538 348.01867676 C-13.14532688 348.40353218 -14.62521382 348.78286417 -16.10626221 349.15756226 C-20.3131307 350.22455915 -24.50737721 351.33944317 -28.703125 352.44921875 C-30.08534241 352.81342171 -30.08534241 352.81342171 -31.4954834 353.1849823 C-43.56020702 356.37888946 -55.5540972 359.82271455 -67.55078125 363.26171875 C-68.73953857 363.60212189 -69.9282959 363.94252502 -71.15307617 364.29324341 C-88.28253996 369.20140046 -105.39347635 374.17172351 -122.48828125 379.19921875 C-123.52284454 379.50332672 -124.55740784 379.80743469 -125.62332153 380.12075806 C-136.22140797 383.23847666 -146.81158663 386.38045168 -157.3842926 389.58328247 C-161.71658858 390.89567019 -166.05059674 392.20236205 -170.38449097 393.50946045 C-173.40249031 394.42324317 -176.41720287 395.34731546 -179.43188477 396.27197266 C-181.27475977 396.8289225 -183.11777005 397.38542498 -184.9609375 397.94140625 C-185.77530273 398.19480774 -186.58966797 398.44820923 -187.42871094 398.70928955 C-199.07547439 402.18986563 -209.94663256 402.3349431 -221.26171875 397.31640625 C-237.35582366 388.25418718 -242.66253718 373.97796457 -247.40625 357.08203125 C-248.5350232 352.74711821 -249.42578125 349.07492451 -249.42578125 344.57421875 C-248.51054687 344.2596875 -247.5953125 343.94515625 -246.65234375 343.62109375 C-244.86957031 342.97914063 -244.86957031 342.97914063 -243.05078125 342.32421875 C-241.27574219 341.69773437 -241.27574219 341.69773437 -239.46484375 341.05859375 C-236.05880943 339.39497801 -235.64056469 339.01919622 -234.42578125 335.57421875 C-234.21786133 333.17553721 -234.11697163 330.76679748 -234.08203125 328.359375 C-234.06740845 327.66661972 -234.05278564 326.97386444 -234.03771973 326.26011658 C-233.9913597 324.05237546 -233.95708678 321.84472153 -233.92578125 319.63671875 C-233.88449061 316.73144552 -233.83076413 313.82678881 -233.76953125 310.921875 C-233.74149414 308.9884021 -233.74149414 308.9884021 -233.71289062 307.01586914 C-233.43869041 303.72896399 -232.96162205 301.4764398 -231.42578125 298.57421875 C-228.08644452 296.73104141 -224.86305908 296.28005281 -221.11328125 295.82421875 C-215.35611865 294.80779247 -211.37371349 292.94214379 -207.42578125 288.57421875 C-202.34553313 280.50648143 -201.1139618 270.90202995 -201.125 261.55078125 C-201.11857231 260.31054703 -201.11857231 260.31054703 -201.11201477 259.04525757 C-201.1063138 257.30915231 -201.10573965 255.57302319 -201.11010742 253.83691406 C-201.11326531 251.21246696 -201.08976246 248.58915193 -201.06445312 245.96484375 C-201.02352431 234.97630351 -201.34154883 224.16858526 -207.42578125 214.57421875 C-213.976288 208.20075272 -221.15390738 208.23414581 -229.80078125 208.26171875 C-230.80367188 208.24560547 -231.8065625 208.22949219 -232.83984375 208.21289062 C-239.78545515 208.20834507 -245.81396715 208.69452913 -251.44921875 213.1875 C-251.89523438 213.74824219 -252.34125 214.30898437 -252.80078125 214.88671875 C-253.26226562 215.43972656 -253.72375 215.99273437 -254.19921875 216.5625 C-261.73199341 228.91721004 -258.73976491 249.4327013 -258.97802734 263.38330078 C-259.03013945 266.35847149 -259.08719645 269.3335198 -259.14453125 272.30859375 C-259.15810669 273.20568054 -259.17168213 274.10276733 -259.18566895 275.02703857 C-259.29426351 280.60238843 -259.73383638 286.04006049 -260.42578125 291.57421875 C-261.41578125 291.57421875 -262.40578125 291.57421875 -263.42578125 291.57421875 C-265.31375445 289.68624555 -265.27505614 286.50454756 -265.74804688 283.97509766 C-267.29376469 275.95871487 -269.23284733 268.06553797 -271.26953125 260.16015625 C-271.63918285 258.71281188 -272.00843495 257.26536542 -272.37731934 255.81782532 C-273.15500989 252.7683719 -273.93478481 249.71946324 -274.71630859 246.67098999 C-276.76527509 238.67653977 -278.79801115 230.67795076 -280.83203125 222.6796875 C-281.0332962 221.88870729 -281.23456116 221.09772709 -281.44192505 220.28277779 C-285.92598597 202.65731324 -290.29676283 185.00572918 -294.55281067 167.32377625 C-295.87791958 161.82203599 -297.22376892 156.32572824 -298.58078003 150.83177185 C-299.53804239 146.94828575 -300.48567688 143.06248927 -301.43139648 139.17617798 C-301.8783239 137.347884 -302.32903574 135.52051004 -302.78393555 133.69418335 C-306.9318987 117.02044249 -308.51702963 101.64698735 -299.61328125 86.01171875 C-294.6998503 78.15887456 -288.41968937 73.54310273 -280.05078125 69.88671875 C-279.2515625 69.52255859 -278.45234375 69.15839844 -277.62890625 68.78320312 C-276.0295407 68.0572775 -274.42569277 67.34114147 -272.81738281 66.63525391 C-271.19988087 65.91764841 -269.59245009 65.17697189 -267.99511719 64.41552734 C-267.2168457 64.0489502 -266.43857422 63.68237305 -265.63671875 63.3046875 C-264.6010376 62.80618286 -264.6010376 62.80618286 -263.54443359 62.29760742 C-261.0730272 61.45377507 -259.0195893 61.44880323 -256.42578125 61.57421875 C-256.48113037 62.20884033 -256.53647949 62.84346191 -256.59350586 63.49731445 C-259.07749635 92.64090741 -259.53022933 121.7729559 -259.65594482 151.00756836 C-259.66779532 153.71549313 -259.68609342 156.42325702 -259.70977783 159.13110352 C-259.73954431 162.95600811 -259.74942143 166.78046145 -259.75390625 170.60546875 C-259.7662027 171.76949219 -259.77849915 172.93351563 -259.79116821 174.1328125 C-259.7867421 175.73672852 -259.7867421 175.73672852 -259.78222656 177.37304688 C-259.78587219 178.30894653 -259.78951782 179.24484619 -259.79327393 180.20910645 C-259.35399968 183.03619112 -258.6789893 183.86799327 -256.42578125 185.57421875 C-250.57855843 188.09915587 -245.73941288 188.18107295 -239.61328125 186.57421875 C-236.10868676 184.84355708 -236.10868676 184.84355708 -235.25244141 181.09960938 C-234.18613453 176.14052246 -234.07512643 171.22444089 -234.01171875 166.16796875 C-233.9923526 165.20266235 -233.97298645 164.23735596 -233.95303345 163.24279785 C-233.89368107 160.18669218 -233.84703087 157.13054793 -233.80078125 154.07421875 C-233.76256061 151.9908698 -233.72350655 149.90753597 -233.68359375 147.82421875 C-233.58801636 142.74100945 -233.50382312 137.65772628 -233.42578125 132.57421875 C-232.10578125 131.91421875 -230.78578125 131.25421875 -229.42578125 130.57421875 C-227.2828142 133.78866933 -227.17311345 134.6490328 -227.15454102 138.34936523 C-227.13926109 139.80118446 -227.13926109 139.80118446 -227.12367249 141.28233337 C-227.12153244 142.32611649 -227.1193924 143.3698996 -227.1171875 144.4453125 C-227.09203118 146.65039331 -227.06663311 148.85547137 -227.04101562 151.06054688 C-227.01224268 154.54109002 -226.98822811 158.02158551 -226.96948242 161.50219727 C-226.94786267 164.8584858 -226.90842823 168.21421621 -226.8671875 171.5703125 C-226.86701378 173.13295082 -226.86701378 173.13295082 -226.86683655 174.72715759 C-226.84682838 176.18370506 -226.84682838 176.18370506 -226.82641602 177.66967773 C-226.82134537 178.52222641 -226.81627472 179.37477509 -226.81105042 180.25315857 C-226.34061753 183.08728894 -225.35034067 184.47173362 -223.42578125 186.57421875 C-218.30538352 188.58618376 -211.74879986 188.11790396 -206.48828125 186.88671875 C-203.59406738 185.04494629 -202.84349506 183.75770044 -201.42578125 180.57421875 C-200.96451978 176.72689768 -200.98169759 172.89864317 -200.9921875 169.02734375 C-200.98694565 167.90156921 -200.9817038 166.77579468 -200.9763031 165.61590576 C-200.9698855 163.23548201 -200.97121647 160.85502653 -200.97973633 158.47460938 C-200.98821861 154.85097982 -200.95952355 151.22894156 -200.92773438 147.60546875 C-200.92612143 145.28776089 -200.92670167 142.97005025 -200.9296875 140.65234375 C-200.91845352 139.57704407 -200.90721954 138.50174438 -200.89564514 137.39385986 C-200.95109533 131.33952109 -201.68190152 126.85235269 -204.52893066 121.4719696 C-206.53956903 117.21742516 -205.68596469 113.42773565 -204.3671875 109.1015625 C-203.91214844 107.91691406 -203.45710938 106.73226562 -202.98828125 105.51171875 C-198.45843797 92.74536422 -198.7833387 80.51067147 -202.42578125 67.57421875 C-205.99051428 60.61911464 -211.76188629 57.17272203 -218.42578125 53.57421875 C-218.42578125 52.25421875 -218.42578125 50.93421875 -218.42578125 49.57421875 C-217.4605957 49.32591309 -216.49541016 49.07760742 -215.50097656 48.82177734 C-166.80461878 36.24397576 -118.56398435 21.91736142 -70.36328125 7.57421875 C-69.45088684 7.30289124 -68.53849243 7.03156372 -67.59844971 6.75201416 C-57.56779888 3.76470539 -47.56345487 0.70984171 -37.60472107 -2.51025391 C-24.7649243 -6.62473849 -12.06294791 -7.09013846 0 0 Z M-185.42578125 55.57421875 C-190.52348333 60.50747882 -189.62569653 67.9862945 -189.7421875 74.58984375 C-189.76324051 75.60585159 -189.78429352 76.62185944 -189.8059845 77.6686554 C-189.8732605 81.05375808 -189.93204393 84.43891527 -189.98828125 87.82421875 C-190.00779846 88.98718475 -190.02731567 90.15015076 -190.04742432 91.34835815 C-190.17233762 99.02401349 -190.27709791 106.69984274 -190.37249756 114.37591553 C-190.40817609 117.2321142 -190.44650715 120.08826081 -190.48687744 122.94439697 C-190.60228328 131.15347501 -190.69895714 139.36223501 -190.75241184 147.5719738 C-190.77627528 151.21308571 -190.80814177 154.85368153 -190.86038208 158.49450684 C-190.91832225 162.58501374 -190.93560547 166.67472972 -190.94921875 170.765625 C-190.98315483 172.60269768 -190.98315483 172.60269768 -191.01777649 174.47688293 C-191.22753925 181.21961093 -191.22753925 181.21961093 -188.01806641 186.81225586 C-184.22707527 189.38897304 -182.1892933 189.75650957 -177.61328125 189.82421875 C-176.57558594 189.85 -175.53789062 189.87578125 -174.46875 189.90234375 C-170.07634633 189.42870844 -167.50456182 187.65299932 -164.42578125 184.57421875 C-163.54457506 181.24141037 -163.28395814 178.05542338 -163.22045898 174.61865234 C-163.19057137 173.15989937 -163.19057137 173.15989937 -163.16007996 171.67167664 C-163.14334732 170.61599991 -163.12661469 169.56032318 -163.109375 168.47265625 C-163.08841263 167.35127762 -163.06745026 166.22989899 -163.04585266 165.07453918 C-162.97902029 161.36617366 -162.92023036 157.65774862 -162.86328125 153.94921875 C-162.84309937 152.68187897 -162.82291748 151.41453918 -162.80212402 150.10879517 C-162.65344151 140.59750899 -162.53114318 131.08607342 -162.42578125 121.57421875 C-162.41800911 120.87830879 -162.41023697 120.18239883 -162.40222931 119.4654007 C-162.30380901 110.53659138 -162.23188056 101.60805132 -162.1946106 92.67877197 C-162.1820826 90.07258273 -162.16458529 87.46641253 -162.14205933 84.86029053 C-162.11240596 81.21663668 -162.1023138 77.57344774 -162.09765625 73.9296875 C-162.08535477 72.84895462 -162.07305328 71.76822174 -162.06037903 70.65473938 C-162.00535853 63.59187273 -162.00535853 63.59187273 -165.42578125 57.57421875 C-172.24665312 52.11752126 -177.83535531 51.49352516 -185.42578125 55.57421875 Z M-147.30078125 63.44921875 C-151.80785646 70.07727053 -151.8218655 76.55390222 -152.05859375 84.328125 C-152.10038254 85.48577362 -152.14217133 86.64342224 -152.18522644 87.83615112 C-152.31747365 91.60273892 -152.43530169 95.36958194 -152.55078125 99.13671875 C-152.59214203 100.41499542 -152.63350281 101.69327209 -152.67611694 103.01028442 C-153.16692646 118.23732425 -153.6288144 133.46955293 -153.72332764 148.70504761 C-153.73316981 150.22325333 -153.747574 151.74143747 -153.76690674 153.259552 C-153.88711881 163.86670119 -153.51539396 174.0666835 -146.42578125 182.57421875 C-136.56106963 190.02308263 -123.79074224 188.68167013 -111.92578125 188.82421875 C-110.9824292 188.84556885 -110.03907715 188.86691895 -109.06713867 188.88891602 C-103.82891094 188.91463257 -99.81928105 188.77201924 -95.42578125 185.57421875 C-93.56544983 181.89484502 -93.16990272 178.85474239 -93.15112305 174.76171875 C-93.14159103 173.61703125 -93.13205902 172.47234375 -93.12223816 171.29296875 C-93.12314957 170.06578125 -93.12406097 168.83859375 -93.125 167.57421875 C-93.11857231 165.6715625 -93.11857231 165.6715625 -93.11201477 163.73046875 C-93.10627587 161.05063992 -93.10483095 158.37119685 -93.11010742 155.69140625 C-93.11590639 152.26492704 -93.09895278 148.83898763 -93.07576275 145.41259766 C-93.05745494 142.13314215 -93.06121114 138.85371615 -93.0625 135.57421875 C-93.05329025 134.34703125 -93.04408051 133.11984375 -93.03459167 131.85546875 C-93.04393486 130.1384375 -93.04393486 130.1384375 -93.0534668 128.38671875 C-93.05283737 127.38253906 -93.05220795 126.37835938 -93.05155945 125.34375 C-93.49003982 122.09865557 -94.52670889 120.21820336 -96.42578125 117.57421875 C-101.35965342 114.13294656 -108.12827306 115.09467916 -113.81640625 115.921875 C-117.56071529 116.74700977 -120.04390145 117.5534674 -122.42578125 120.57421875 C-124.70889678 127.6559783 -122.669214 133.72997342 -120.359375 140.515625 C-118.90412742 145.28323527 -118.53432829 149.34558636 -120.42578125 154.07421875 C-120.75578125 154.56921875 -121.08578125 155.06421875 -121.42578125 155.57421875 C-122.91078125 155.07921875 -122.91078125 155.07921875 -124.42578125 154.57421875 C-125.8052096 151.81536205 -125.55299522 149.5913624 -125.55517578 146.50390625 C-125.55832794 145.22918457 -125.5614801 143.95446289 -125.56472778 142.64111328 C-125.56293795 141.24381475 -125.56088698 139.84651654 -125.55859375 138.44921875 C-125.5592671 137.02197249 -125.5602374 135.59472634 -125.56149292 134.16748047 C-125.5629684 131.17479359 -125.56082013 128.18213654 -125.55615234 125.18945312 C-125.55045513 121.34912746 -125.55373494 117.50887168 -125.55972481 113.66854858 C-125.56333444 110.72094189 -125.56218998 107.77335182 -125.55959702 104.82574463 C-125.55892886 103.40952547 -125.55975229 101.99330481 -125.56207657 100.5770874 C-125.56460962 98.59956897 -125.56006582 96.62204526 -125.55517578 94.64453125 C-125.55438019 93.51805176 -125.55358459 92.39157227 -125.55276489 91.23095703 C-125.42578125 88.57421875 -125.42578125 88.57421875 -124.42578125 86.57421875 C-123.43578125 86.57421875 -122.44578125 86.57421875 -121.42578125 86.57421875 C-121.255625 87.67121094 -121.08546875 88.76820312 -120.91015625 89.8984375 C-120.66616527 91.35299912 -120.4213288 92.80741909 -120.17578125 94.26171875 C-120.06621094 94.98294922 -119.95664063 95.70417969 -119.84375 96.44726562 C-119.03013822 101.13623876 -117.93014628 104.12913809 -114.42578125 107.57421875 C-108.94194613 109.40216379 -102.73081204 109.51504765 -97.36328125 107.32421875 C-94.40651058 104.65358718 -93.51733323 102.57062978 -93.15112305 98.58496094 C-93.12281256 94.83104265 -93.10407114 91.07825965 -93.11328125 87.32421875 C-93.09716797 86.02613281 -93.08105469 84.72804688 -93.06445312 83.390625 C-93.06018221 75.0110894 -93.10714791 68.2166212 -98.98828125 61.76171875 C-106.41214998 56.3390668 -115.7104384 56.07555915 -124.55078125 56.13671875 C-126.09958984 56.10674805 -126.09958984 56.10674805 -127.6796875 56.07617188 C-135.56696731 56.08119562 -141.85935844 57.43444717 -147.30078125 63.44921875 Z M-80.30078125 59.01171875 C-82.37247982 61.88907787 -82.56369293 64.58597038 -82.63110352 68.00805664 C-82.65102859 68.91836136 -82.67095367 69.82866608 -82.69148254 70.76655579 C-82.70821518 71.76656113 -82.72494781 72.76656647 -82.7421875 73.796875 C-82.76314987 74.85750656 -82.78411224 75.91813812 -82.80570984 77.01091003 C-82.8729158 80.55276446 -82.93156054 84.09468155 -82.98828125 87.63671875 C-83.00846313 88.85008911 -83.02864502 90.06345947 -83.04943848 91.31359863 C-83.37504539 111.33744478 -83.58366473 131.36325331 -83.6569519 151.38961792 C-83.66805936 154.34520082 -83.68593568 157.30062481 -83.70950317 160.25613403 C-83.74189186 164.40910472 -83.74925732 168.56174888 -83.75390625 172.71484375 C-83.76620773 173.96025436 -83.77850922 175.20566498 -83.79118347 176.48881531 C-83.78822769 177.63107071 -83.78527191 178.77332611 -83.78222656 179.95019531 C-83.78587219 180.94488831 -83.78951782 181.9395813 -83.79327393 182.9644165 C-83.36224485 186.02543163 -82.56856148 187.37253425 -80.42578125 189.57421875 C-76.85253445 190.76530102 -73.81741184 190.85301797 -70.05078125 190.94921875 C-68.09011719 191.02269531 -68.09011719 191.02269531 -66.08984375 191.09765625 C-62.40665059 190.79986038 -62.40665059 190.79986038 -59.5 188.91015625 C-56.1615837 183.54102721 -56.64197728 178.02256188 -56.61328125 171.82421875 C-56.58814453 170.58671875 -56.56300781 169.34921875 -56.53710938 168.07421875 C-56.44021897 162.86982006 -56.42143375 157.66975592 -56.46484375 152.46484375 C-56.4198328 147.9817536 -55.85767928 144.7945498 -54.42578125 140.57421875 C-52.94078125 140.07921875 -52.94078125 140.07921875 -51.42578125 139.57421875 C-50.58699838 145.29359846 -50.34852579 150.72145493 -50.50390625 156.4921875 C-50.53113866 158.17511136 -50.55714437 159.85805544 -50.58203125 161.54101562 C-50.62538354 164.16161217 -50.67631297 166.78113913 -50.74804688 169.40112305 C-50.81470544 171.95247965 -50.84941347 174.50266595 -50.87890625 177.0546875 C-50.90784973 177.83498825 -50.93679321 178.615289 -50.96661377 179.41923523 C-50.9866885 183.50946128 -50.63004156 185.318726 -48.04199219 188.5559082 C-43.40646991 192.1320432 -38.14549176 192.15918914 -32.42578125 191.57421875 C-29.59107078 190.92090657 -28.00369277 190.12096566 -25.42578125 188.57421875 C-22.76153704 183.08331711 -23.07676502 177.23383766 -23.01171875 171.26171875 C-22.99212601 170.12767105 -22.97253326 168.99362335 -22.9523468 167.82521057 C-22.89111832 164.07495403 -22.84491516 160.3247131 -22.80078125 156.57421875 C-22.7654464 153.96085523 -22.73004498 151.34749261 -22.69458008 148.73413086 C-22.61332155 142.5066267 -22.54795054 136.27903457 -22.48909283 130.05128193 C-22.44771776 125.69699425 -22.40064733 121.34281829 -22.34890366 116.98864174 C-22.25506786 109.08340349 -22.18572037 101.17837107 -22.14068604 93.27270508 C-22.12438558 90.51832365 -22.09911279 87.76424335 -22.06634521 85.01000977 C-22.02131921 81.15770908 -22.00901347 77.30568673 -22 73.453125 C-21.98254227 72.30477676 -21.96508453 71.15642853 -21.94709778 69.97328186 C-21.94997299 68.92063644 -21.95284821 67.86799103 -21.95581055 66.78344727 C-21.94994431 65.86886246 -21.94407806 64.95427765 -21.93803406 64.01197815 C-22.58375212 60.78468071 -23.89421836 59.61169416 -26.42578125 57.57421875 C-29.75828627 56.46338374 -32.35617083 56.4066229 -35.86328125 56.38671875 C-37.56291016 56.36544922 -37.56291016 56.36544922 -39.296875 56.34375 C-42.3475858 56.56845903 -43.96677642 56.79858201 -46.42578125 58.57421875 C-48.20895483 61.51744389 -48.70503005 63.83468745 -48.83642578 67.25097656 C-48.87631622 68.17162903 -48.91620667 69.09228149 -48.95730591 70.04083252 C-49.00744339 71.51915558 -49.00744339 71.51915558 -49.05859375 73.02734375 C-49.10015594 74.04270203 -49.14171814 75.0580603 -49.18453979 76.10418701 C-49.31518496 79.3439254 -49.4331379 82.58398471 -49.55078125 85.82421875 C-49.63718475 88.02216844 -49.72441441 90.22008583 -49.8125 92.41796875 C-50.02651132 97.80304736 -50.23010697 103.18844435 -50.42578125 108.57421875 C-51.74578125 108.57421875 -53.06578125 108.57421875 -54.42578125 108.57421875 C-55.6677493 103.79437601 -55.51834994 99.15433576 -55.453125 94.2578125 C-55.44048426 92.42382997 -55.4281229 90.5898455 -55.41601562 88.75585938 C-55.39115876 85.87664686 -55.3631173 82.99753611 -55.32983398 80.1184082 C-55.29964782 77.33153633 -55.28186742 74.54479558 -55.265625 71.7578125 C-55.25216537 70.89731796 -55.23870575 70.03682343 -55.22483826 69.1502533 C-55.2214595 68.34584305 -55.21808075 67.5414328 -55.21459961 66.71264648 C-55.20714218 66.00824936 -55.19968475 65.30385223 -55.19200134 64.57810974 C-55.46981456 62.19677847 -56.18750369 60.61760072 -57.42578125 58.57421875 C-63.88223437 54.31600127 -74.12773544 54.2790503 -80.30078125 59.01171875 Z M-121.30078125 210.01171875 C-123.47600651 213.03286494 -123.55255265 215.81988165 -123.55949402 219.40557861 C-123.563759 220.40087082 -123.56802399 221.39616302 -123.57241821 222.4216156 C-123.57196503 223.51257034 -123.57151184 224.60352509 -123.57104492 225.72753906 C-123.57440353 226.87740799 -123.57776215 228.02727692 -123.58122253 229.21199036 C-123.59074607 233.02545239 -123.59267648 236.83887056 -123.59375 240.65234375 C-123.59696207 243.29929625 -123.6003261 245.94624856 -123.60383606 248.59320068 C-123.61023353 254.14823696 -123.61171837 259.70326132 -123.61108398 265.25830078 C-123.61048395 271.66969555 -123.62102101 278.08100598 -123.63682765 284.49237943 C-123.64992619 290.00248651 -123.65526687 295.51256611 -123.65462857 301.02268863 C-123.65437416 304.31099002 -123.6581189 307.59919987 -123.66780663 310.88748932 C-123.67761006 314.55950394 -123.67472666 318.23130216 -123.66870117 321.90332031 C-123.67432068 322.98617813 -123.67994019 324.06903595 -123.68572998 325.18470764 C-123.66286638 330.67139592 -123.5075005 335.45645975 -121.42578125 340.57421875 C-116.33747458 343.79335154 -111.36454252 344.35976918 -105.42578125 343.57421875 C-101.31665787 342.42803063 -98.86103754 341.22710318 -96.42578125 337.57421875 C-96.12179793 335.22919978 -96.12179793 335.22919978 -96.16508484 332.57754517 C-96.15445763 331.02978645 -96.15445763 331.02978645 -96.14361572 329.45075989 C-96.14609314 328.3192601 -96.14857056 327.18776031 -96.15112305 326.02197266 C-96.14601212 324.82987686 -96.14090118 323.63778107 -96.13563538 322.40956116 C-96.12410487 319.13879894 -96.12166787 315.86819363 -96.12419868 312.5974164 C-96.12526798 309.86635195 -96.12038595 307.1353109 -96.11559325 304.40425146 C-96.10449421 297.95991288 -96.10406254 291.51563258 -96.11010742 285.07128906 C-96.11614526 278.42577572 -96.10384209 271.78047421 -96.08253735 265.13499701 C-96.06491446 259.42788552 -96.05892116 253.7208414 -96.0621751 248.0137037 C-96.0639874 244.6058345 -96.0613575 241.19811631 -96.04746056 237.79027176 C-96.03514677 233.98843247 -96.04185823 230.18708511 -96.0534668 226.38525391 C-96.04582306 225.25780258 -96.03817932 224.13035126 -96.03030396 222.96873474 C-96.04082542 221.41251656 -96.04082542 221.41251656 -96.05155945 219.82485962 C-96.05130784 218.47705131 -96.05130784 218.47705131 -96.05105114 217.10201454 C-96.51323234 213.98430488 -97.59038422 212.11842909 -99.42578125 209.57421875 C-106.01403236 205.23196234 -114.84388973 205.06143526 -121.30078125 210.01171875 Z M-185.0078125 212.97265625 C-192.18305147 220.40976526 -192.87506642 229.86093593 -192.84570312 239.74365234 C-192.85417267 240.8115802 -192.86264221 241.87950806 -192.87136841 242.97979736 C-192.89459639 246.477541 -192.89576457 249.97484164 -192.89453125 253.47265625 C-192.90163692 255.91501032 -192.90933651 258.35736272 -192.91760254 260.79971313 C-192.93101137 265.90184179 -192.93263024 271.00381574 -192.92675781 276.10595703 C-192.92083839 282.64998348 -192.95156343 289.19327401 -192.99187469 295.73715782 C-193.01768118 300.77283746 -193.020636 305.8083376 -193.01698303 310.84407425 C-193.01867815 313.25786833 -193.02835808 315.67167036 -193.04612732 318.08539963 C-193.06819666 321.45115974 -193.05867815 324.81539864 -193.04101562 328.18115234 C-193.06091049 329.67888687 -193.06091049 329.67888687 -193.08120728 331.20687866 C-193.09689869 336.75020677 -193.09689869 336.75020677 -190.0045166 341.1769104 C-184.31679298 344.25884888 -178.98436258 344.12857804 -172.67578125 342.76171875 C-169.54993739 341.61958349 -168.43341635 341.08303098 -166.42578125 338.57421875 C-163.87054172 329.58943089 -165.35273008 318.47845663 -165.42578125 309.19921875 C-165.45241113 305.77474277 -165.47235217 302.35032178 -165.48828125 298.92578125 C-165.49657959 298.14659332 -165.50487793 297.3674054 -165.51342773 296.56460571 C-165.54513822 289.57389291 -165.54513822 289.57389291 -164.42578125 286.57421875 C-162.94078125 286.07921875 -162.94078125 286.07921875 -161.42578125 285.57421875 C-161.41991501 286.18729889 -161.41404877 286.80037903 -161.40800476 287.43203735 C-161.34397668 293.82397079 -161.25953247 300.21540513 -161.16333008 306.60693359 C-161.13011479 308.99098116 -161.10207233 311.37510672 -161.0793457 313.75927734 C-161.04573807 317.19011614 -160.99341718 320.62024238 -160.9375 324.05078125 C-160.93111008 325.1135025 -160.92472015 326.17622375 -160.9181366 327.27114868 C-160.8102729 332.72360209 -160.63438357 336.93441029 -157.42578125 341.57421875 C-151.69141955 344.50807822 -145.74090681 344.02965329 -139.61328125 342.82421875 C-136.0937506 341.44401065 -134.99623588 340.97687045 -133.42578125 337.57421875 C-132.25304903 331.05156174 -132.31735434 324.47981492 -132.44140625 317.87890625 C-132.45790222 316.88722443 -132.47439819 315.8955426 -132.49139404 314.87380981 C-132.52866039 312.79130177 -132.56917436 310.70884952 -132.61279297 308.62646484 C-132.67573483 305.4515602 -132.7170852 302.27681996 -132.7578125 299.1015625 C-132.79685164 297.06898453 -132.8371725 295.03643068 -132.87890625 293.00390625 C-132.88843323 292.06207489 -132.89796021 291.12024353 -132.90777588 290.14987183 C-133.07540568 283.65946006 -133.92557052 278.61018892 -138.17578125 273.44921875 C-139.42578125 271.57421875 -139.42578125 271.57421875 -139.36328125 269.32421875 C-138.56390515 266.9793822 -137.66128541 265.11001588 -136.48828125 262.94921875 C-130.5661326 251.44948283 -130.9540808 235.78275778 -134.42578125 223.57421875 C-137.48487173 216.86455202 -141.0591625 211.24124699 -148.16796875 208.52734375 C-159.3839089 205.2459416 -175.74369084 204.78363019 -185.0078125 212.97265625 Z M-81.42578125 216.57421875 C-85.74565436 222.74546605 -85.57774176 228.74255504 -85.58691406 236.01098633 C-85.59187897 236.95471603 -85.59684387 237.89844574 -85.60195923 238.87077332 C-85.61654082 241.98677302 -85.62337601 245.10272181 -85.62890625 248.21875 C-85.63466076 250.38962301 -85.64041845 252.56049602 -85.6461792 254.73136902 C-85.65667763 259.28160844 -85.66252796 263.83183025 -85.66601562 268.38208008 C-85.67149951 274.2026187 -85.69553037 280.0229233 -85.72398758 285.84338856 C-85.74264236 290.32761814 -85.74782107 294.81179164 -85.7493515 299.29605675 C-85.75237186 301.44138557 -85.76037948 303.58671356 -85.77353668 305.73200417 C-85.79065722 308.73793817 -85.78870222 311.74330414 -85.78222656 314.74926758 C-85.79144135 315.62902252 -85.80065613 316.50877747 -85.81015015 317.41519165 C-85.75823421 325.13719392 -84.06717975 331.93282025 -78.42578125 337.57421875 C-71.28496874 342.61880229 -64.53861406 342.7771827 -56.11328125 342.82421875 C-55.20126953 342.84484375 -54.28925781 342.86546875 -53.34960938 342.88671875 C-45.85635687 342.92969081 -40.44906143 341.66725888 -34.17578125 337.32421875 C-26.38700773 329.53544523 -26.21303044 321.40589159 -26.18554688 310.95068359 C-26.17584597 308.71413922 -26.14481353 306.47851614 -26.11328125 304.2421875 C-26.10675009 302.81380752 -26.10150006 301.38542099 -26.09765625 299.95703125 C-26.08831055 298.66168457 -26.07896484 297.36633789 -26.06933594 296.03173828 C-26.44786387 292.36001731 -27.22994364 290.50019857 -29.42578125 287.57421875 C-34.1578247 284.27380969 -39.68074188 284.13782498 -45.22265625 284.9453125 C-47.65064194 285.47948492 -47.65064194 285.47948492 -49.92578125 287.63671875 C-53.47781672 294.59278821 -53.88967115 301.89937949 -54.42578125 309.57421875 C-55.74578125 309.57421875 -57.06578125 309.57421875 -58.42578125 309.57421875 C-58.42578125 287.13421875 -58.42578125 264.69421875 -58.42578125 241.57421875 C-56.44578125 241.07921875 -56.44578125 241.07921875 -54.42578125 240.57421875 C-53.45776968 243.77841208 -53.37978146 246.55152955 -53.48828125 249.88671875 C-53.53132374 255.25985686 -53.38092753 260.02402795 -49.98828125 264.44921875 C-46.70716233 266.81162437 -43.45326274 266.76582751 -39.55078125 266.82421875 C-38.52210938 266.85 -37.4934375 266.87578125 -36.43359375 266.90234375 C-32.98650155 266.52629733 -31.18985296 265.63523389 -28.42578125 263.57421875 C-26.00354714 259.94086758 -26.08607655 257.18343251 -26.0546875 252.9765625 C-26.04565903 252.22766251 -26.03663055 251.47876251 -26.02732849 250.70716858 C-26.01282098 249.11935417 -26.003938 247.53147991 -26.00024414 245.94360352 C-25.98844013 243.5440172 -25.93934704 241.14708319 -25.88867188 238.74804688 C-25.79676251 230.15606176 -25.93867039 222.69592454 -31.42578125 215.57421875 C-38.91381193 208.44823476 -46.17360896 207.21275563 -56.23828125 207.19921875 C-57.18509766 207.17472656 -58.13191406 207.15023437 -59.10742188 207.125 C-68.20664835 207.08742577 -75.47239766 209.39513853 -81.42578125 216.57421875 Z " fill="#EFFEFE" transform="translate(352.42578125,16.42578125)"/>
<path d="M0 0 C5.11637206 3.41091471 6.11028976 9.50889234 7.5 15.125 C7.71100342 15.95974854 7.92200684 16.79449707 8.1394043 17.65454102 C8.57364059 19.38153187 9.00404275 21.10949117 9.43066406 22.83837891 C10.0250775 25.22476053 10.64561916 27.60269698 11.2734375 29.98046875 C13.38728641 38.1813267 14.65365395 45.85253059 14.0625 54.375 C12.0825 54.87 12.0825 54.87 10.0625 55.375 C5.1875 49.75 5.1875 49.75 4.0625 46.375 C3.0725 50.005 2.0825 53.635 1.0625 57.375 C-0.9175 57.87 -0.9175 57.87 -2.9375 58.375 C-6.48764375 55.68549716 -8.11881364 52.37610999 -9.9375 48.375 C-9.91429687 49.20644531 -9.89109375 50.03789062 -9.8671875 50.89453125 C-9.84914062 51.98121094 -9.83109375 53.06789063 -9.8125 54.1875 C-9.78929687 55.26644531 -9.76609375 56.34539062 -9.7421875 57.45703125 C-9.9375 60.375 -9.9375 60.375 -11.9375 63.375 C-13.75 63.1875 -13.75 63.1875 -15.9375 62.375 C-22.26721969 53.31162245 -23.71853184 40.37852944 -26.18701172 29.74804688 C-27.06838965 25.95947992 -27.96373688 22.20601983 -29.09765625 18.484375 C-30.11421856 14.72073035 -29.89652853 12.1373427 -28.9375 8.375 C-25.9375 6.375 -25.9375 6.375 -23 6.4375 C-18.74585988 7.73978779 -17.12825202 10.27126848 -14.96313477 14.09643555 C-14.00521232 15.94588489 -13.08865329 17.80977502 -12.1875 19.6875 C-11.87167969 20.33267578 -11.55585938 20.97785156 -11.23046875 21.64257812 C-10.46058292 23.21734459 -9.69825109 24.7958004 -8.9375 26.375 C-7.92995083 20.36046983 -8.0073908 14.74987925 -8.29296875 8.6796875 C-7.86592417 4.70958076 -6.71418351 3.17734602 -3.9375 0.375 C-1.9375 -0.625 -1.9375 -0.625 0 0 Z M-12.9375 42.375 C-12.2775 43.695 -11.6175 45.015 -10.9375 46.375 C-11.2675 45.055 -11.5975 43.735 -11.9375 42.375 C-12.2675 42.375 -12.5975 42.375 -12.9375 42.375 Z " fill="#EFFDFD" transform="translate(248.9375,399.625)"/>
<path d="M0 0 C4.38004844 4.13118205 5.5072102 9.11684054 7 14.75 C7.25273682 15.67578857 7.50547363 16.60157715 7.76586914 17.55541992 C8.5254847 20.36655195 9.26424945 23.18254055 10 26 C10.22284668 26.82902832 10.44569336 27.65805664 10.67529297 28.51220703 C11.28072979 30.77477623 11.86388393 33.04167938 12.4375 35.3125 C12.61345703 35.97411133 12.78941406 36.63572266 12.97070312 37.31738281 C14.32391198 42.93291409 14.50100695 48.16939739 11.734375 53.38671875 C7.57400362 57.25661375 1.61024734 57.97402827 -3.875 58.0625 C-8.10282906 56.62503812 -8.82584319 54.86661421 -11 51 C-12.02259007 48.12918093 -12.73834873 45.21417027 -13.4375 42.25 C-13.85522556 40.56341861 -14.27453891 38.8772298 -14.6953125 37.19140625 C-15.01290527 35.90580811 -15.01290527 35.90580811 -15.33691406 34.59423828 C-15.99065341 32.03656732 -16.69712679 29.5009749 -17.4296875 26.96484375 C-17.66115479 26.16208008 -17.89262207 25.35931641 -18.13110352 24.53222656 C-18.57409756 23.00785723 -19.02222619 21.48496741 -19.47631836 19.96386719 C-20.9597249 14.80034486 -21.99529415 10.37764714 -19.875 5.3125 C-15.22984271 -0.41652732 -6.92807307 -2.57096462 0 0 Z M-8 13 C-9.76432785 17.14884366 -8.06471324 20.73406112 -6.6875 24.75 C-4.89218137 30.13084102 -3.31809031 35.48011008 -2 41 C-1.01 41 -0.02 41 1 41 C0.42519987 34.61333193 -0.65790704 28.67335801 -2.375 22.5 C-2.58382812 21.69046875 -2.79265625 20.8809375 -3.0078125 20.046875 C-3.57084615 18.00072832 -4.2750901 15.99454977 -5 14 C-5.99 13.67 -6.98 13.34 -8 13 Z " fill="#EFFDFD" transform="translate(211,413)"/>
<path d="M0 0 C4.3280235 5.60097159 4.85830054 13.02948968 5.9375 19.875 C6.9553031 25.93756627 8.99839526 31.61977142 11.09301758 37.38134766 C12.5982036 41.63495217 13.6059904 45.16684864 13.125 49.75 C11.625 52.125 11.625 52.125 10.125 53.75 C7.17094663 53.43349428 6.16602597 52.79226918 4.0625 50.625 C1.35766401 46.61137239 -0.50557121 42.63819161 -1.4375 37.875 C-1.6540625 36.823125 -1.6540625 36.823125 -1.875 35.75 C-2.535 35.42 -3.195 35.09 -3.875 34.75 C-3.63523437 35.91917969 -3.39546875 37.08835937 -3.1484375 38.29296875 C-2.84821297 39.84100146 -2.54877506 41.38918688 -2.25 42.9375 C-2.09015625 43.70642578 -1.9303125 44.47535156 -1.765625 45.26757812 C-0.93407537 49.6710114 -0.46335807 52.71754676 -2.875 56.75 C-4.75 57.75 -4.75 57.75 -6.875 57.75 C-9.56574815 56.20411969 -10.70173709 55.1647747 -11.90820312 52.27661133 C-12.15505859 51.3048999 -12.40191406 50.33318848 -12.65625 49.33203125 C-12.93919922 48.24970215 -13.22214844 47.16737305 -13.51367188 46.05224609 C-13.79791016 44.90062988 -14.08214844 43.74901367 -14.375 42.5625 C-14.82456055 40.80413818 -14.82456055 40.80413818 -15.28320312 39.01025391 C-15.88087208 36.66701725 -16.47277572 34.32230171 -17.05859375 31.97607422 C-17.75502266 29.22409705 -18.48666166 26.48786879 -19.25 23.75390625 C-19.62502743 22.37761164 -20.00003002 21.00131026 -20.375 19.625 C-20.6946875 18.46742188 -21.014375 17.30984375 -21.34375 16.1171875 C-22.00445089 11.92950982 -21.69397724 8.91421762 -20.875 4.75 C-15.71412932 -1.8057006 -7.67815128 -3.33832664 0 0 Z " fill="#EFFDFD" transform="translate(391.875,360.25)"/>
<path d="M0 0 C2.4375 -0.375 2.4375 -0.375 5 0 C7.49579511 2.02842198 8.46503088 3.72319162 9.25854492 6.80957031 C9.55851631 7.94655365 9.55851631 7.94655365 9.86454773 9.10650635 C10.16942863 10.32995758 10.16942863 10.32995758 10.48046875 11.578125 C10.80704216 12.84532379 10.80704216 12.84532379 11.14021301 14.13812256 C11.59814539 15.92558689 12.05087655 17.71439064 12.4987793 19.50439453 C13.18233406 22.22940583 13.88573671 24.94871294 14.59179688 27.66796875 C15.03505661 29.40854839 15.47715172 31.14942512 15.91796875 32.890625 C16.12729538 33.69816223 16.33662201 34.50569946 16.55229187 35.33770752 C17.92925865 40.90700444 19.21529295 46.32635551 16.75 51.75 C14.40245273 54.76827506 12.35333215 56.65231467 8.59765625 57.6171875 C4.83956363 57.99936641 1.78519181 58.22190203 -1.875 57.1875 C-8.08571983 50.79411194 -9.77728673 39.44543607 -12.1875 31.125 C-12.54263672 29.91585938 -12.89777344 28.70671875 -13.26367188 27.4609375 C-17.44209233 13.18929267 -17.44209233 13.18929267 -17 7 C-15.5 4.5625 -15.5 4.5625 -14 3 C-11.3125 2.875 -11.3125 2.875 -8 4 C-5.91713033 7.15928811 -4.43353924 10.50495521 -3 14 C-2.95101563 13.24074219 -2.90203125 12.48148437 -2.8515625 11.69921875 C-2.77679688 10.70535156 -2.70203125 9.71148437 -2.625 8.6875 C-2.55539062 7.70136719 -2.48578125 6.71523438 -2.4140625 5.69921875 C-2 3 -2 3 0 0 Z M-1 16 C-1.89460898 29.71401559 -1.89460898 29.71401559 3.60546875 41.76953125 C4.06566406 42.17558594 4.52585937 42.58164062 5 43 C6.23898855 41.99445402 6.23898855 41.99445402 6.01953125 39.953125 C5.02919966 26.97818313 5.02919966 26.97818313 -1 16 Z " fill="#EFFDFD" transform="translate(304,383)"/>
<path d="M0 0 C4.07345637 3.16824384 5.93525303 5.96665067 7 11 C7.50873429 15.49251512 7.81398254 18.77902619 5.25 22.625 C3 24 3 24 0.9375 24.1875 C-2.12488171 22.31055637 -2.66973689 19.23890148 -4 16 C-4.99 15.67 -5.98 15.34 -7 15 C-6.566875 16.3921875 -6.566875 16.3921875 -6.125 17.8125 C-5.21854047 20.95658339 -4.60773661 24.08689857 -4.0625 27.3125 C-3.13117703 32.69182146 -1.68762493 37.81336606 0 43 C2.0542652 40.05297317 2.0542652 40.05297317 3.5625 36.875 C5 34 5 34 6 33 C8.375 32.6875 8.375 32.6875 11 33 C15.1084066 37.29787195 15.09107073 42.30393988 15 48 C14.07987403 51.82206172 13.03345135 53.28823118 9.81640625 55.50390625 C5.77164167 57.76331051 2.79284919 58.97442422 -1.875 59.125 C-5.87607084 57.6846145 -6.69828103 56.60114799 -9 53 C-10.43587736 49.10662157 -11.50356912 45.13507887 -12.5625 41.125 C-12.86478516 40.00689941 -13.16707031 38.88879883 -13.47851562 37.73681641 C-19.75111801 14.20775422 -19.75111801 14.20775422 -18 6 C-13.12954836 -0.26200925 -7.65356686 -2.08733642 0 0 Z " fill="#EFFDFD" transform="translate(180,421)"/>
<path d="M0 0 C2.80331644 1.34373846 3.87696295 2.55850739 6 5 C7 8.125 7 8.125 7 11 C5 14 5 14 2.90625 14.546875 C1.71515625 14.64742188 1.71515625 14.64742188 0.5 14.75 C-0.69109375 14.86601562 -0.69109375 14.86601562 -1.90625 14.984375 C-4 15 -4 15 -6 14 C-5.14303774 18.70588246 -5.14303774 18.70588246 -2.375 22.375 C-0.17616665 22.95364036 1.74324909 23.14051712 4 23.3125 C6.96876513 23.66500643 7.87534552 23.90229784 10.3125 25.8125 C14.11208963 32.98950263 16.20112616 41.87571609 15 50 C13.59383868 53.59352338 12.46614217 54.70995599 9.1875 56.75 C1.70792079 59.68316832 1.70792079 59.68316832 -2.5 58 C-5.73601677 55.41118659 -8.92507815 52.62721301 -11 49 C-10.62068707 45.18540018 -8.787391 43.51764349 -6 41 C-3.03 41.99 -0.06 42.98 3 44 C2.67039784 38.98464948 2.67039784 38.98464948 0 35 C-2.2701851 34.76371554 -2.2701851 34.76371554 -4.8125 34.75 C-8.84429252 34.40723954 -9.75248256 34.21591947 -12.9375 31.4375 C-17.22534697 25.05875945 -19.21214108 17.6768554 -19 10 C-15.74399105 1.67908823 -8.32624546 -1.22937852 0 0 Z " fill="#EFFDFD" transform="translate(418,350)"/>
<path d="M0 0 C3.14830968 2.79849749 4.76285858 6.08690721 6.25 10 C6.25 10.66 6.25 11.32 6.25 12 C7.24 12 8.23 12 9.25 12 C9.1778125 12.65226562 9.105625 13.30453125 9.03125 13.9765625 C8.89203125 15.28753906 8.89203125 15.28753906 8.75 16.625 C8.65203125 17.54152344 8.5540625 18.45804687 8.453125 19.40234375 C8.17450222 22.09832499 8.17450222 22.09832499 8.5 25.1875 C8.13054899 29.34382387 6.01059497 31.95787126 3.25 35 C2.486875 35.495 1.72375 35.99 0.9375 36.5 C-1.12069736 37.98695124 -1.12069736 37.98695124 -1.0625 41.25 C-0.81862138 44.98681218 -0.81862138 44.98681218 -0.0625 48.5625 C0.30894723 52.64841952 -0.6448697 54.5475863 -2.75 58 C-5.5 57.6875 -5.5 57.6875 -8.75 56 C-12.70886522 48.28053113 -14.38595684 39.18404757 -16.4375 30.8125 C-16.74494141 29.59369141 -17.05238281 28.37488281 -17.36914062 27.11914062 C-21.28181884 11.34000289 -21.28181884 11.34000289 -20.125 6.25 C-15.68761986 -1.01116751 -7.72063908 -2.80750512 0 0 Z M-6.75 17 C-7.08 17.66 -7.41 18.32 -7.75 19 C-6.85836423 21.11683841 -6.85836423 21.11683841 -5.75 23 C-4.76 22.67 -3.77 22.34 -2.75 22 C-3.41 20.35 -4.07 18.7 -4.75 17 C-5.41 17 -6.07 17 -6.75 17 Z " fill="#EFFDFD" transform="translate(279.75,393)"/>
<path d="M0 0 C2 1.125 2 1.125 3 3 C3.9833165 8.2853262 1.89396273 10.93099134 -0.953125 15.09765625 C-2.26410774 17.07771503 -2.26410774 17.07771503 -1.8125 20 C-1.544375 20.66 -1.27625 21.32 -1 22 C-0.36191406 22.17015625 0.27617187 22.3403125 0.93359375 22.515625 C1.75988281 22.75796875 2.58617187 23.0003125 3.4375 23.25 C4.26121094 23.48203125 5.08492188 23.7140625 5.93359375 23.953125 C8 25 8 25 8.96875 26.9296875 C9 29 9 29 7.78515625 30.4921875 C6.93244141 31.17667969 6.93244141 31.17667969 6.0625 31.875 C3.52105851 34.20366964 3.05470626 34.68391937 2.4375 38.25 C2.73117075 41.32923381 2.73117075 41.32923381 6 43 C8.32873375 43.68255989 10.66182791 44.35050775 13 45 C14 46 14 46 14.4375 48.25 C14 51 14 51 11.1875 53.75 C7.51816669 56.34011763 5.19097581 57.13427829 0.8125 57.0625 C-0.445625 57.041875 -1.70375 57.02125 -3 57 C-5.44915674 52.49230374 -6.9776752 48.02358472 -8.2265625 43.07421875 C-8.41971039 42.32719193 -8.61285828 41.5801651 -8.81185913 40.8105011 C-9.21677727 39.23723416 -9.61830345 37.6630907 -10.01660156 36.08813477 C-10.62116435 33.7026348 -11.23944932 31.32100093 -11.859375 28.93945312 C-12.2534346 27.40125417 -12.64668986 25.86284889 -13.0390625 24.32421875 C-13.22135406 23.62391037 -13.40364563 22.92360199 -13.59146118 22.20207214 C-16.93476359 8.84911238 -16.93476359 8.84911238 -15.06167603 5.1438446 C-10.87629977 -0.10143552 -6.31260989 -0.71016861 0 0 Z " fill="#EFFDFD" transform="translate(361,367)"/>
<path d="M0 0 C0.66 0.495 1.32 0.99 2 1.5 C1.75 3.75 1.75 3.75 1 6.5 C0.29875 7.056875 -0.4025 7.61375 -1.125 8.1875 C-3.17978594 10.25446285 -3.17978594 10.25446285 -3.08959961 12.42993164 C-2.29531502 19.92012071 -0.44215167 27.00149714 1.5625 34.25 C2.21655031 36.61789252 2.86393492 38.98763861 3.50390625 41.359375 C3.79080322 42.39545898 4.0777002 43.43154297 4.37329102 44.49902344 C5.02482141 47.61885655 5.2306215 50.32279977 5 53.5 C3.3125 55.5 3.3125 55.5 1 56.5 C-1.5625 56.1875 -1.5625 56.1875 -4 54.5 C-6.48818123 48.85656482 -7.869865 43.09474195 -9.29663086 37.1081543 C-12.64361766 22.90114293 -12.64361766 22.90114293 -21.27734375 11.48046875 C-23 9.5 -23 9.5 -23.48828125 6.91015625 C-23 4.5 -23 4.5 -21.390625 2.953125 C-20.68421875 2.55609375 -19.9778125 2.1590625 -19.25 1.75 C-18.55390625 1.34265625 -17.8578125 0.9353125 -17.140625 0.515625 C-11.61286862 -2.10703313 -5.51870414 -2.75935207 0 0 Z " fill="#EFFDFD" transform="translate(340,376.5)"/>
<path d="M0 0 C4 2 4 2 4.86328125 3.99609375 C6.44213235 12.57680626 6.31937482 20.81220877 3 29 C1.68 29 0.36 29 -1 29 C-0.67 19.43 -0.34 9.86 0 0 Z " fill="#EFFBFC" transform="translate(120,256)"/>
<path d="M0 0 C3 1 3 1 4.75 4.5 C6.32221476 9.12513972 6.40086868 13.30893317 5 18 C2.9375 20.5625 2.9375 20.5625 1 22 C0.34 21.67 -0.32 21.34 -1 21 C-1.02888146 17.68751813 -1.04675799 14.37506833 -1.0625 11.0625 C-1.07087891 10.11697266 -1.07925781 9.17144531 -1.08789062 8.19726562 C-1.09111328 7.29814453 -1.09433594 6.39902344 -1.09765625 5.47265625 C-1.10289307 4.64000244 -1.10812988 3.80734863 -1.11352539 2.94946289 C-1 1 -1 1 0 0 Z " fill="#EFFBFB" transform="translate(121,99)"/>
<path d="M0 0 C2.48988677 1.76701642 3.81509569 3.25650363 4.55859375 6.24609375 C5.23099045 11.69997812 4.90143303 15.85494593 3 21 C1.68 20.67 0.36 20.34 -1 20 C-1.02888514 16.85418577 -1.04675923 13.70840531 -1.0625 10.5625 C-1.07087891 9.66466797 -1.07925781 8.76683594 -1.08789062 7.84179688 C-1.09111328 6.98779297 -1.09433594 6.13378906 -1.09765625 5.25390625 C-1.10551147 4.06776733 -1.10551147 4.06776733 -1.11352539 2.85766602 C-1 1 -1 1 0 0 Z " fill="#EDF8F9" transform="translate(188,254)"/>
</svg>
